<?xml version="1.0" encoding="UTF-8" standalone="no"?>
<!-- Created with Inkscape (http://www.inkscape.org/) -->

<svg
   width="335.38196"
   height="334.6239"
   viewBox="0 0 88.736472 88.535908"
   version="1.1"
   id="svg1"
   xml:space="preserve"
   xmlns:xlink="http://www.w3.org/1999/xlink"
   xmlns="http://www.w3.org/2000/svg"
   xmlns:svg="http://www.w3.org/2000/svg"><defs
     id="defs1"><linearGradient
       id="gradient_0-8"
       gradientUnits="userSpaceOnUse"
       x1="721.11475"
       y1="559.539"
       x2="783.26184"
       y2="212.37416"
       gradientTransform="matrix(0.58810925,0,0,0.58810925,-1255.1957,-92.392376)"><stop
         offset="0"
         stop-color="#EB7018"
         id="stop12" /><stop
         offset="1"
         stop-color="#FAC819"
         id="stop13" /></linearGradient><linearGradient
       xlink:href="#gradient_0-8"
       id="linearGradient39"
       gradientUnits="userSpaceOnUse"
       gradientTransform="matrix(0.58810925,0,0,0.58810925,-1255.1957,-92.392376)"
       x1="721.11475"
       y1="559.539"
       x2="783.26184"
       y2="212.37416" /></defs><g
     id="layer2"
     transform="translate(-284.03877,63.707129)"><g
       id="g22"
       transform="matrix(0.17196376,0,0,0.17196376,492.52356,-55.522923)"><path
         fill="#009cdf"
         d="m -1010.7781,304.12439 c 6.4439,0.17643 11.98439,1.51026 17.06566,5.71407 5.39237,4.4614 8.59345,10.66654 9.22685,17.62152 0.56046,6.15574 -1.95723,13.12248 -5.99519,17.75266 -4.69544,5.38532 -10.46602,8.68755 -17.63612,9.14098 -6.9944,0.24231 -13.0984,-1.37382 -18.4043,-6.04164 -4.7284,-4.16029 -8.1636,-10.78181 -8.4776,-17.10986 -0.3487,-7.0232 1.7673,-13.68589 6.528,-18.9183 4.8942,-5.37885 10.4936,-7.80362 17.6927,-8.15943 z"
         id="path2-4"
         style="stroke-width:0.588109" /><path
         fill="#09b88b"
         d="m -1082.2775,126.77769 c 5.203,-0.81512 11.5299,0.93333 15.9213,3.7145 5.56,3.52101 10.0649,9.35976 11.4164,15.89601 l 0.1082,0.54929 0.2153,1.09153 c 1.0662,6.41804 -0.6117,13.2007 -4.4032,18.45546 -4.3767,6.06634 -10.476,9.32035 -17.7445,10.51127 -6.0263,0.8757 -13.0219,-0.89098 -17.9602,-4.45669 -5.0178,-3.62334 -9.0798,-9.91552 -10.0526,-16.07244 -1.0962,-6.94263 0.5199,-13.96171 4.7261,-19.60756 4.3596,-5.8511 10.6536,-9.02336 17.7732,-10.08137 z"
         id="path3-2"
         style="stroke-width:0.588109" /><path
         fill="#10913a"
         d="m -900.46889,63.836495 c 6.63681,-0.60223 12.10034,0.43167 17.66974,4.18145 5.28357,3.55865 9.19215,9.62088 10.38954,15.867187 1.32971,6.936156 -0.0494,13.92936 -4.08736,19.709888 -4.19146,5.99989 -10.43424,9.43856 -17.53036,10.68182 -6.95675,0.4552 -13.08955,-0.84746 -18.79068,-4.94952 -5.18125,-3.72803 -8.46525,-9.782608 -9.4962,-16.004214 -1.11094,-6.703266 0.56047,-13.78351 4.52785,-19.289971 4.3473,-6.03342 10.08372,-9.00984 17.31747,-10.19664 z"
         id="path4-2"
         style="stroke-width:0.588109" /><path
         fill="#75c134"
         d="m -998.27971,52.390715 c 6.2575,-0.31229 11.63046,0.9251 16.8811,4.44257 5.49765,3.68274 9.22979,9.85848 10.48775,16.30768 1.33736,6.852651 -0.0541,13.548855 -4.00973,19.294091 -4.16381,6.046936 -10.47187,9.398574 -17.55976,10.678294 -2.66527,0.21349 -5.45996,0.30935 -8.07295,-0.33698 -3.9203,-0.9698 -7.2907,-2.31127 -10.5348,-4.777208 -5.2682,-4.005026 -9.0762,-10.153112 -9.9167,-16.752288 -0.9203,-7.225509 1.0322,-13.837619 5.52,-19.562859 4.3697,-5.57351 10.3049,-8.40173 17.20509,-9.2933 z"
         id="path5-1"
         style="stroke-width:0.588109" /><path
         fill="#f5ad17"
         d="m -823.38189,139.72374 c 6.94263,-0.28817 12.71904,1.5138 18.08907,5.94579 5.23358,4.31966 8.4723,9.76967 9.05864,16.61761 0.60693,7.08966 -0.74043,14.1552 -5.4553,19.6799 -4.90953,5.7523 -11.42814,8.93162 -18.91653,9.51032 -2.67531,0.24583 -5.4853,-0.0876 -8.10003,-0.65222 -6.32453,-1.365 -12.17504,-5.60762 -15.56784,-11.11114 -3.21813,-5.22006 -4.71487,-12.65553 -3.23989,-18.65013 0.9839,-4.0009 2.28186,-7.67894 4.91306,-10.93118 5.12126,-6.33041 11.17584,-9.53913 19.21882,-10.40895 z"
         id="path6-7"
         style="stroke-width:0.588109" /><path
         fill="#09b88b"
         d="m -1088.4703,226.75744 c 5.8711,-0.6922 12.2745,0.54988 17.2022,3.91505 5.5935,3.81859 9.8026,10.1143 11.01,16.80698 l 0.085,0.49637 0.086,0.46519 c 1.1768,6.67622 -0.584,13.75823 -4.5302,19.24529 -4.4303,6.15985 -10.5195,9.42386 -17.895,10.69418 -6.4404,0.44931 -12.2668,-0.22349 -17.7256,-3.92622 -5.7523,-3.90211 -9.8726,-9.77555 -11.1135,-16.6482 l -0.3306,-1.85078 c -1.0486,-6.42215 0.7852,-13.31538 4.5855,-18.56661 4.6343,-6.40333 10.98,-9.45797 18.6266,-10.63125 z"
         id="path7-2"
         style="stroke-width:0.588109" /><path
         fill="#e75c1b"
         d="m -829.32767,238.83779 c 5.8211,0.22466 11.00352,1.55144 15.6837,5.14478 5.44295,4.17793 9.78084,10.84239 10.64654,17.73679 0.8904,7.08789 -1.13388,14.46808 -5.54587,20.09628 -4.89484,6.24396 -11.8804,9.15627 -19.53993,10.11842 l -4.85014,-0.32346 c -6.64681,-0.88981 -13.33479,-4.90483 -17.3304,-10.27721 -3.82212,-5.13831 -5.81405,-12.89665 -4.85308,-19.22647 l 0.0735,-0.45754 c 0.68986,-4.77369 2.46124,-9.44445 5.68878,-13.10484 5.45942,-6.19044 11.85805,-9.18568 20.02689,-9.70675 z"
         id="path8-4"
         style="stroke-width:0.588109" /><path
         fill="#009cdf"
         d="m -914.36415,313.5065 c 3.06287,-0.30641 6.24631,-0.27112 9.24037,0.48754 7.02379,1.78021 12.87606,6.13516 16.54881,12.41616 3.3828,5.78523 4.65547,13.0919 3.02758,19.63285 -0.80571,3.23754 -2.09661,6.1528 -4.06207,8.85575 -4.82485,6.63623 -10.84414,9.87259 -18.82832,11.09939 -6.66327,0.41344 -13.16129,-1.05978 -18.59719,-5.06127 -5.60821,-4.12853 -9.48443,-10.34249 -10.46422,-17.27336 -0.95451,-6.75384 0.63868,-14.39574 4.82837,-19.87985 4.5802,-5.99343 10.95942,-9.22685 18.30667,-10.27721 z"
         id="path9-1"
         style="stroke-width:0.588109" /><path
         fill="#193d91"
         d="m -881.99462,224.45147 0.5046,0.0159 c -5.68055,4.30967 -11.30581,8.65168 -16.59703,13.44183 -13.56886,12.28443 -24.83703,26.11852 -33.63573,42.18214 -3.97974,7.26609 -7.64131,15.1591 -9.90435,23.14209 -4.43435,15.63724 -6.05753,34.17562 2.25657,48.86659 5.79935,10.2478 15.57843,16.69289 26.76662,19.78988 10.61125,2.93701 22.15349,2.49005 32.91589,0.65985 15.13381,-2.57297 29.55837,-7.93535 42.89433,-15.52137 39.44684,-22.43872 67.4826,-60.68229 79.55119,-104.19708 0.13997,0.93921 0.004,1.93076 -0.0553,2.87703 -0.93097,14.86857 -4.77838,29.47191 -10.37189,43.23955 -10.5054,25.85681 -26.44316,47.84563 -47.3275,66.3052 -24.61355,20.6444 -53.34798,33.85804 -85.12764,38.84874 -13.08367,2.05485 -26.75603,2.79822 -39.9485,1.33677 -4.96188,-0.5493 -9.81613,-1.31384 -14.69156,-2.40243 l -9.20802,-2.42889 c -0.86099,-0.25289 -2.54357,-1.01037 -3.39163,-0.83805 1.19269,8.83398 2.84351,17.57388 5.61586,26.06264 3.51924,10.77417 8.89103,21.29779 15.21438,30.68813 2.51123,3.7292 4.99776,7.45546 8.08533,10.73947 -3.34164,-2.0031 -6.31806,-4.48375 -9.30506,-6.96969 -11.76807,-9.79437 -21.92942,-22.20877 -28.65092,-35.98817 -10.81239,-22.1676 -13.41595,-47.76152 -9.35388,-71.94046 1.385,-8.24647 3.77448,-16.48117 6.48802,-24.38124 10.29368,-29.97358 29.50132,-56.31205 53.9802,-76.33717 13.21775,-10.81298 27.98047,-19.69519 43.29601,-27.19123 z"
         id="path10-6"
         style="stroke-width:0.588109" /><path
         fill="#10913a"
         d="m -967.02169,-47.592621 c 3.96209,2.316445 7.89772,5.605446 11.27935,8.690314 10.70888,9.766965 19.49347,22.230178 25.34574,35.4849837 3.03582,6.8755846 5.16654,14.3257523 6.74091,21.6635913 1.22033,5.68584 2.22246,11.406379 2.68001,17.209253 1.59672,20.251534 -2.40007,41.669884 -9.77202,60.512893 -6.59035,16.846386 -16.64173,33.520466 -28.48095,47.211056 -6.20338,7.17258 -13.40713,13.89173 -20.615,20.0557 -13.20011,11.28876 -28.15685,21.05255 -44.10755,27.99224 18.1679,-13.41771 34.16909,-29.01907 45.80719,-48.54371 8.15649,-13.68472 14.06816,-29.22374 15.69957,-45.129148 0.69691,-6.796194 0.55459,-14.118728 -1.16857,-20.764957 -2.8688,-11.06939 -10.05549,-19.61109 -19.87574,-25.2634 -18.27075,-10.51598 -41.65455,-7.95359 -61.10265,-2.74353 l -10.0526,3.45926 c -37.2708,14.76095 -67.9795,47.133407 -85.5075,82.665795 -3.2605,6.60917 -5.9423,13.27421 -8.4876,20.18273 -1.0822,2.93643 -1.8449,5.9152 -3.1017,8.794 l 4.8919,-26.28025 c 12.0533,-44.900964 41.4493,-82.414085 81.6813,-105.512664 27.8981,-16.017155 62.0454,-23.2156119 94.02856,-20.366223 10.35248,0.922155 20.39974,3.131093 30.41583,5.824046 -0.93686,-5.094791 -1.71787,-10.2031079 -2.97818,-15.2337937 -2.96055,-11.8139384 -7.45723,-23.7525563 -13.35891,-34.4243873 -2.92643,-5.293042 -6.5039,-10.526861 -9.96139,-15.483799 z"
         id="path11-5"
         style="stroke-width:0.588109" /><path
         fill="#009cdf"
         d="m -1127.1114,176.20769 c 19.9175,-0.50519 40.0061,3.79801 58.5804,10.85297 12.4797,4.74016 24.3824,11.33051 35.3618,18.87595 20.8738,14.34516 38.00298,31.75966 51.86822,52.94218 4.44375,6.78855 8.70401,13.80528 12.01507,21.2231 -2.77058,-3.1852 -5.02245,-6.86323 -7.74363,-10.11901 -6.13457,-7.34019 -13.41478,-14.28458 -20.80377,-20.35387 -16.67639,-13.69648 -37.09959,-24.5712 -58.30569,-28.9385 -8.1435,-1.67729 -16.2918,-2.45418 -24.5906,-1.55967 -11.214,1.20974 -21.8229,6.95851 -28.7867,15.82661 -9.5986,12.22385 -12.4509,27.8058 -10.6401,42.96961 4.4614,37.362 29.656,72.05456 58.6433,94.84556 15.9672,12.08564 32.6483,21.79356 51.5901,28.55388 3.5075,1.25149 7.6024,2.95231 11.25049,3.60099 l 0.3799,0.0623 c -2.09959,0.29935 -4.53489,-0.25759 -6.62849,-0.54635 -5.6812,-0.78454 -11.4205,-1.69611 -16.9935,-3.05582 -32.0719,-7.82538 -60.0671,-24.8976 -83.3209,-48.07146 -8.6129,-8.58287 -16.8317,-18.18375 -23.1309,-28.63269 -18.7048,-31.02629 -29.5543,-67.47965 -25.7633,-103.9289 0.7786,-7.48957 2.4148,-14.73684 4.1973,-22.03586 -4.2808,0.37109 -8.5564,0.67044 -12.7831,1.48615 -14.2805,2.75705 -29.3502,9.41092 -40.7079,18.5325 -3.2417,2.60356 -6.074,5.54998 -8.9529,8.53758 0.5051,-1.67376 1.6601,-3.45514 2.5613,-4.95423 2.8263,-4.70194 6.3589,-9.3133 10.0369,-13.38361 14.8932,-16.48176 35.1377,-27.15006 56.916,-31.13097 5.2147,-0.95333 10.4642,-1.33383 15.7507,-1.59848 z"
         id="path12-7"
         style="stroke-width:0.588109" /><path
         fill="url(#gradient_0)"
         d="m -893.71093,19.067269 -23.04859,-7.093186 c 4.12323,0.01941 8.14296,0.602224 12.22385,1.131522 20.83495,2.702362 40.65305,9.289186 59.19731,19.111198 l 0.11292,0.169964 c 2.63885,1.091531 5.11243,2.56004 7.54485,4.047956 l 0.0106,0.06999 c 4.04149,2.258928 8.49524,5.028922 12.07506,7.950052 l 0.25994,0.0841 c 1.61495,0.88805 3.22461,2.30069 4.72193,3.39575 5.62409,4.11441 10.63949,8.68284 15.58019,13.58473 32.69358,32.435971 51.01201,77.608045 50.4139,123.666405 -0.0959,7.3896 -0.5587,14.74743 -1.69258,22.05586 l -1.5826,8.71814 c -0.18819,0.86687 -0.94097,2.96407 -0.65692,3.74037 17.65504,-1.82843 35.51298,-7.75363 49.79757,-18.54779 4.4761,-3.3828 8.40937,-7.24903 12.39558,-11.17407 -0.22525,1.32207 -1.40441,3.32399 -2.0431,4.56196 -11.13761,21.5842 -32.52303,34.60317 -55.04291,41.78693 -10.92177,3.48395 -21.7518,5.72112 -33.23817,6.11516 -23.23737,0.79688 -47.75741,-6.60741 -68.22949,-17.2416 -30.61226,-15.9013 -55.2658,-40.50779 -73.23783,-69.76387 l -6.3904,-10.93472 c -0.99096,-1.83843 -2.10837,-3.71038 -2.73882,-5.70936 1.56202,1.67258 2.80116,3.82329 4.19792,5.65467 l 8.02652,9.89964 c 13.76116,16.13478 30.5905,28.18337 49.87989,36.87621 13.91937,6.27278 28.47567,9.18568 43.71181,7.55604 4.79603,-0.51284 9.4862,-1.36442 14.007,-3.08817 11.77924,-4.49139 19.20235,-11.08233 24.36537,-22.62868 8.4229,-18.83596 4.52903,-42.60969 -2.68061,-61.23394 -12.96428,-33.489265 -38.89872,-60.976895 -69.70447,-78.95599 -9.05218,-5.282985 -18.66129,-9.568537 -28.23512,-13.805276 z"
         id="path13"
         style="fill:url(#linearGradient39);stroke-width:0.588109" /></g></g></svg>
