<?xml version="1.0" encoding="UTF-8" standalone="no"?>
<svg
   width="512"
   height="512"
   version="1.1"
   id="svg8"
   sodipodi:docname="acne.svg"
   inkscape:version="1.3.2 (1:1.3.2+202311252150+091e20ef0f)"
   xmlns:inkscape="http://www.inkscape.org/namespaces/inkscape"
   xmlns:sodipodi="http://sodipodi.sourceforge.net/DTD/sodipodi-0.dtd"
   xmlns="http://www.w3.org/2000/svg"
   xmlns:svg="http://www.w3.org/2000/svg">
  <defs
     id="defs8" />
  <sodipodi:namedview
     id="namedview8"
     pagecolor="#ffffff"
     bordercolor="#666666"
     borderopacity="1.0"
     inkscape:showpageshadow="2"
     inkscape:pageopacity="0.0"
     inkscape:pagecheckerboard="0"
     inkscape:deskcolor="#d1d1d1"
     inkscape:zoom="1.1476675"
     inkscape:cx="200.40649"
     inkscape:cy="289.71807"
     inkscape:window-width="1920"
     inkscape:window-height="1027"
     inkscape:window-x="0"
     inkscape:window-y="25"
     inkscape:window-maximized="1"
     inkscape:current-layer="svg8" />
  <path
     d="m 229.50316,498.80834 -5.74732,-3.03328 C 191.1014,477.37442 161.39423,452.26231 140.36017,421.0643 127.50906,402.00369 109.27931,366.14398 103.12463,344.00387 70.522845,345.11959 60.44705,297.83835 60.247129,273.25508 60.147113,261.0274 62.258202,252.04688 73.749602,245.07638 L 67.427229,222.2333 c -10.262821,-44.03836 5.0981,-98.11598 41.700531,-125.5627 13.85825,-10.390738 30.78096,-15.611365 45.63992,-24.300588 12.25348,-7.167211 23.63202,-15.733899 35.38999,-23.66104 23.75563,-16.01444 48.88063,-28.643048 77.19584,-33.896997 l 8.03141,-1.33606 c 7.39723,-0.959855 13.29502,-1.64347 20.93303,-1.830497 6.98771,-0.0731 14.01196,-0.208525 20.98677,0.303112 57.43766,4.215627 104.6286,35.898399 125.42082,90.97994 16.46267,43.6138 17.33008,97.98378 -2.1293,141.06336 8.23454,5.60758 12.34913,14.23339 12.41041,24.19848 0.1623,26.53846 -8.33237,75.47928 -43.05917,75.60504 l -14.46555,37.59777 c -20.29026,44.56289 -43.04949,72.66098 -81.96934,100.60967 -28.11529,20.18922 -51.08518,31.90312 -84.00943,16.80555 z M 298.82024,27.809263 c -38.23515,0.388027 -69.62341,14.287128 -100.55163,35.354516 -12.00303,8.176511 -23.69006,17.065659 -36.29395,24.311335 -13.5057,7.762688 -28.46892,12.466304 -41.42859,21.289886 -23.406299,15.93813 -36.153142,45.3325 -38.994015,72.69969 -1.408078,13.55836 0.451443,50.38653 9.713576,59.26385 4.017851,3.85124 3.268663,-3.20311 3.24502,-4.76166 -0.47617,-31.95472 14.943869,-84.36306 47.484389,-98.33096 6.26217,-2.68932 13.05856,-3.4643 19.60449,-5.16366 23.55893,-6.116 44.36835,-20.34615 67.56397,-27.68534 86.84816,-26.91789 184.5127,27.57571 192.21842,122.55629 0.39124,4.82079 0.18165,9.83074 0.20637,14.67301 l 0.14833,-0.27946 c 0.69437,-1.24254 1.51772,-1.80255 2.6345,-2.63342 4.83475,-3.59865 12.9156,-40.60739 13.80559,-46.7696 l 0.13113,-1.09529 c 1.59296,-13.38639 0.61161,-28.19913 -1.31456,-41.47159 l -3.22245,-18.57691 C 420.75419,70.166536 377.32205,32.969698 315.68705,28.194066 310.11172,27.76197 304.41062,27.897403 298.82024,27.809263 Z M 270.36422,113.79 c -24.0738,0.94373 -44.3877,9.08048 -65.91836,19.18852 l -25.38405,11.57524 c -6.34709,2.79896 -7.47032,4.72726 -15.0707,4.54669 -11.18291,-0.26549 -19.05202,3.64702 -26.776,11.98692 -17.35588,18.74137 -27.27905,47.92615 -26.16334,73.31343 0.72553,16.49382 4.42308,28.69571 -18.693006,23.65244 -17.882554,-3.90177 -17.51387,14.47738 -15.049207,26.73623 l 1.877795,10.59497 c 1.819753,8.38287 10.154261,34.4269 22.155148,31.88591 7.38004,-1.56178 10.86261,-3.7932 14.70956,4.37257 2.50766,5.32381 3.9254,11.35489 6.10631,16.86465 11.62469,29.36859 26.50837,60.17857 47.76492,84.00406 17.90836,20.07098 49.6352,45.82372 75.8469,55.08154 15.73175,3.77601 28.94938,-0.15047 42.5486,-8.45705 41.81124,-25.53883 69.69759,-56.33161 90.29956,-100.72146 l 14.09364,-35.50607 c 3.04081,-9.58996 4.77672,-23.5858 18.63067,-15.84354 2.00571,1.12109 3.0021,0.64277 5.14431,-0.47831 15.72638,-8.2195 20.09141,-41.1545 20.12904,-57.0335 0.0591,-24.81653 -20.83844,-1.4285 -30.30802,-15.33512 -2.4292,-3.56749 -1.30812,-8.23026 -1.13184,-12.28036 2.83443,-65.339 -43.00327,-111.74207 -104.96933,-125.07687 -9.94145,-2.13898 -19.66361,-3.29124 -29.8426,-3.07089 z"
     id="path1"
     style="stroke-width:1.07487" />
  <path
     d="m 244.86516,218.38313 c -32.02673,2.8054 -37.86434,-41.81339 -6.75124,-48.23679 30.47139,-2.70222 39.76791,41.59948 6.75124,48.23679 z m -4.4478,-31.80531 c -9.74259,3.60296 -8.25713,16.28424 2.55281,15.38243 10.14781,-4.1361 7.73259,-14.9686 -2.55281,-15.38243 z"
     id="path2"
     style="stroke-width:1.07487" />
  <path
     d="m 191.37012,310.72278 c -55.56739,4.6488 -64.39527,-77.36783 -7.78634,-85.10149 55.06112,-4.9014 65.01977,76.78417 7.78634,85.10149 z m -7.33704,-68.3454 c -10.51543,1.7832 -17.68371,7.87877 -21.89504,17.36017 10.54122,-3.04939 19.59589,-5.21525 30.57459,-4.63053 7.28329,0.90182 13.43475,2.62483 20.00864,5.91285 -2.94729,-12.77372 -16.10688,-20.17095 -28.68819,-18.64249 z m 1.55103,28.61296 c -6.34171,0.37297 -17.07212,2.66781 -21.90793,7.37895 4.22315,11.95252 13.84106,16.48953 25.76132,16.30251 9.51795,-1.49515 17.41822,-6.59216 21.636,-15.24054 -3.41486,-4.44887 -14.06141,-7.46065 -19.17455,-8.11309 z"
     id="path3"
     style="stroke-width:1.07487" />
  <path
     d="m 332.45067,311.13552 c -36.53903,2.74522 -62.67225,-38.41573 -38.66188,-69.05158 7.35961,-9.38896 17.87933,-14.99654 29.6072,-16.46158 56.33269,-4.37364 64.33937,77.84077 9.05468,85.51316 z m -6.47177,-69.04298 c -12.05249,1.34358 -19.53033,7.88737 -24.26619,18.47696 8.76124,-3.55673 17.46121,-5.86125 26.96625,-5.90101 8.485,0.28483 16.48738,1.58112 24.21137,5.34423 -4.52303,-11.12595 -14.6902,-18.79942 -26.91143,-17.92018 z m 0.99854,28.89672 c -6.11706,0.36545 -18.86712,3.00532 -22.82049,8.10879 l -0.30633,0.52239 c 4.18553,10.05 15.2502,15.16099 25.64201,15.1309 9.18797,-1.07273 18.65755,-6.42341 22.49805,-15.11693 -6.76629,-6.31699 -16.03487,-8.3904 -25.01324,-8.64515 z"
     id="path4"
     style="stroke-width:1.07487" />
  <path
     d="m 269.72252,396.54551 c -16.27348,7.2489 -37.79123,3.13216 -46.00859,-13.8518 -9.89845,-20.45687 8.21412,-48.9548 11.47743,-71.03687 0.93835,-6.34816 0.23862,-12.1073 7.1973,-14.90625 18.73278,-2.12716 5.18515,35.54476 1.91327,45.25941 -3.16871,9.40616 -11.58599,25.25291 -4.91967,34.73217 9.54912,13.57879 21.69081,1.40808 30.29942,3.10636 8.62688,1.70152 8.1937,11.88373 0.0408,16.69698 z"
     id="path5"
     style="stroke-width:1.07487" />
  <path
     d="m 174.03897,376.91199 c -12.3556,1.09637 -22.19493,-5.53878 -25.52272,-17.72133 l -0.42242,-1.78427 c -2.18628,-12.93602 7.81858,-24.4242 20.26447,-26.33961 28.9999,-3.91359 36.2316,40.41284 5.68067,45.84521 z m -4.60796,-29.07191 c -8.00023,3.00102 -5.53986,13.57448 3.74806,12.4706 7.77343,-3.55566 5.09702,-12.80059 -3.74806,-12.4706 z"
     id="path6"
     style="stroke-width:1.07487" />
  <path
     d="m 341.31724,391.97087 c -29.34278,-1.17697 -31.18725,-43.36334 0.015,-46.08491 30.05758,1.09744 30.34241,43.95775 -0.015,46.08491 z m -1.95517,-29.03644 c -7.44346,3.74484 -4.89495,13.60566 4.02429,12.27498 7.35962,-3.74914 4.7047,-13.38425 -4.02429,-12.27498 z"
     id="path7"
     style="stroke-width:1.07487" />
</svg>
