<?xml version="1.0" encoding="UTF-8" standalone="no"?>
<svg
   width="512"
   height="512"
   version="1.1"
   id="svg9"
   sodipodi:docname="dermatitis.svg"
   inkscape:version="1.3.2 (1:1.3.2+202311252150+091e20ef0f)"
   xmlns:inkscape="http://www.inkscape.org/namespaces/inkscape"
   xmlns:sodipodi="http://sodipodi.sourceforge.net/DTD/sodipodi-0.dtd"
   xmlns="http://www.w3.org/2000/svg"
   xmlns:svg="http://www.w3.org/2000/svg">
  <defs
     id="defs9" />
  <sodipodi:namedview
     id="namedview9"
     pagecolor="#ffffff"
     bordercolor="#666666"
     borderopacity="1.0"
     inkscape:showpageshadow="2"
     inkscape:pageopacity="0.0"
     inkscape:pagecheckerboard="0"
     inkscape:deskcolor="#d1d1d1"
     inkscape:zoom="0.81152344"
     inkscape:cx="80.09627"
     inkscape:cy="318.5367"
     inkscape:window-width="1920"
     inkscape:window-height="1027"
     inkscape:window-x="0"
     inkscape:window-y="25"
     inkscape:window-maximized="1"
     inkscape:current-layer="svg9" />
  <path
     d="m 397.57729,437.78345 -15.69085,-33.93099 c -4.53971,-11.73145 -2.60235,-21.91166 2.39913,-33.3665 l -5.54565,-10.11359 -11.82629,1.84817 c -31.74412,4.24843 -59.68915,-9.27925 -80.0394,-33.75938 -49.99329,34.77774 -79.50651,45.69745 -131.74312,11.54516 l -19.29124,-13.583 C 116.86588,312.4316 94.344566,293.66761 89.225668,269.25521 c -0.528371,-0.52385 -0.27999,-0.38046 -0.949483,-0.65256 l -3.072016,-1.30964 C 63.039622,256.388 53.446504,232.9759 53.478115,209.43962 c 0.02032,-15.60619 5.40227,-27.49457 21.12248,-32.74329 L 69.942332,138.83641 C 69.486215,125.39226 69.76847,111.82619 71.438261,98.478011 78.094855,45.276098 111.7086,27.749487 162.10043,19.114888 c 12.46417,-2.13607 25.14172,-3.600384 37.78427,-3.984245 l 43.20914,1.387542 c 27.51262,2.828148 56.56972,9.88892 79.12603,26.744904 35.88529,26.816032 45.13859,80.505681 33.38456,121.914051 -2.04123,7.19286 -5.20244,14.23782 -8.38848,20.99264 84.08009,-9.84038 130.76541,95.17252 69.0384,152.24014 -2.74459,2.53686 -5.90805,4.6447 -8.83781,6.96819 3.99553,11.37242 17.36629,17.11904 24.3119,31.61654 l 32.7241,74.45762 c 2.56734,5.70371 5.72517,11.51355 7.23012,17.60225 6.81691,27.57246 -28.77824,46.08695 -47.25208,23.53403 -5.19001,-6.33596 -8.26767,-14.40606 -11.71677,-21.76375 z M 202.42835,30.664568 C 170.1694,31.66825 124.07229,38.232262 101.34437,62.400786 84.610316,80.196098 84.892571,116.30268 85.690773,139.39866 l 0.566752,6.89594 c 3.756187,-15.06201 15.155705,-44.81909 29.614825,-53.388208 12.94514,-7.670433 24.76916,-1.316415 37.44106,2.412675 16.2802,4.792613 31.05205,6.276113 47.93287,5.412433 10.48842,-0.53741 20.77249,-2.712993 31.36026,-2.8067 8.15816,-0.139996 16.50148,-0.628852 24.62578,0.116289 39.11197,3.584581 72.23009,25.818001 83.41059,64.020001 l 3.34071,-17.40129 c 0.97207,-3.9707 0.62998,-8.99588 0.65707,-13.0569 0.47532,-72.712179 -50.3365,-97.915997 -116.87192,-100.838981 z m -74.55133,74.043272 c -8.58605,2.9196 -13.53333,12.79158 -17.29403,20.43153 -10.03456,20.38637 -13.228514,42.27883 -11.171473,64.71434 0.395154,4.30939 -0.09823,7.38253 -4.99695,8.98007 -7.932364,2.58654 -9.256684,-8.52622 -17.008401,-6.35628 -19.305921,5.40566 -5.346951,51.36729 12.362562,59.64626 13.939772,6.51659 9.589731,-0.33645 14.828292,15.49892 6.8474,20.70023 24.23965,34.12405 41.03016,46.8366 39.72729,30.07885 68.09343,42.86704 112.47446,14.63638 L 278.85042,314.308 c -22.63873,-42.91107 -6.39579,-96.26201 37.23559,-118.95606 3.9786,-2.06833 8.17396,-3.32717 12.09837,-5.32098 -0.13887,-6.49063 -0.32854,-12.95755 -1.5377,-19.35786 -6.36643,-33.69164 -38.43571,-54.03849 -70.8911,-57.08115 -36.96575,-3.46491 -64.59466,8.87959 -103.8489,-2.1101 l -14.68378,-4.85471 c -2.9975,-0.9732 -6.15645,-2.08188 -9.34588,-1.9193 z m 223.68558,96.41782 c -42.01577,4.32407 -71.32012,39.08036 -66.88879,81.32419 3.93119,37.47494 38.13201,68.85664 76.53949,64.76289 l 1.88205,-0.22241 c 19.0056,-2.38333 39.32536,-14.26719 51.1189,-29.33484 38.20426,-48.81123 -0.41999,-120.81552 -62.65165,-116.52983 z m 40.71968,150.99371 c 0.37257,3.457 1.08498,6.50418 2.32462,9.74893 l 3.42199,-0.87272 0.52273,-0.46176 c -1.92721,-2.90605 -3.81602,-5.91597 -6.26934,-8.41445 z m 17.07727,22.16455 c -21.82359,5.41356 -14.95813,21.10555 -7.50447,36.44189 l 23.20888,49.77088 c 3.11151,6.74353 8.17284,21.8202 15.21892,25.37994 l 2.44655,1.03078 c 11.39613,1.1211 16.60422,-6.90835 12.53078,-17.57629 l -38.47974,-88.27546 c -1.17416,-2.50977 -3.21201,-6.84061 -6.51321,-6.83948 z"
     id="path1"
     style="display:inline;stroke-width:1.129" />
  <path
     d="m 275.95228,175.33927 c -4.42117,-0.75305 -9.50506,-0.59047 -13.91381,0.19983 -3.65909,0.65595 -13.8551,5.53549 -16.88195,4.13328 l -0.33757,-0.16822 c -9.82345,-4.19538 -7.5948,-13.35157 2.67234,-16.61326 5.1076,-1.62237 10.23778,-2.74121 15.55199,-3.39264 9.28829,-0.73724 30.57673,0.44821 36.03997,8.3738 2.50638,3.63538 0.58821,8.22477 -2.78976,10.51551 -5.6292,3.81828 -14.06848,-1.90463 -20.34121,-3.0483 z"
     id="path2"
     style="stroke-width:1.129" />
  <path
     d="m 167.84818,175.97602 c -6.93094,-1.05109 -14.15429,-1.34577 -20.89781,0.85353 -5.15163,1.67883 -16.78261,6.51434 -18.51336,-3.35426 -1.93172,-11.01341 15.79359,-12.75997 23.13323,-13.62027 l 11.72694,-0.0677 c 7.0077,0.45385 20.91248,1.85833 25.48268,7.41188 2.99862,3.64442 1.75107,8.36816 -1.8956,11.03938 -5.4734,4.00907 -13.02529,-1.07369 -19.03608,-2.26253 z"
     id="path3"
     style="stroke-width:1.129" />
  <path
     d="m 170.2044,204.60524 -11.93015,-0.0237 c -3.46265,-0.0104 -7.49206,0.58933 -10.47939,-1.45529 -8.28123,-5.66645 -3.46942,-13.65075 6.02097,-14.70072 7.1635,-0.25741 33.42632,-0.0485 23.88626,12.50933 -1.96559,2.58767 -4.42229,3.25831 -7.49769,3.67039 z"
     id="path4"
     style="stroke-width:1.129" />
  <path
     d="m 276.30565,204.01816 c -5.37968,0.73949 -16.68098,1.39205 -21.07957,-0.96079 -7.91543,-4.23488 -4.03054,-13.01625 5.11098,-14.30443 6.06386,-0.48209 17.45323,-1.31078 22.40841,2.08074 7.17481,4.91003 2.8609,12.28353 -6.43982,13.18448 z"
     id="path5"
     style="stroke-width:1.129" />
  <path
     d="m 318.89045,277.52514 c -7.73028,0.1513 -18.05837,-4.36922 -11.24147,-12.31853 4.0294,-4.69664 9.55473,-3.69182 15.05862,-4.16939 22.25486,-1.9306 23.45499,-34.22115 56.28521,-36.96575 6.92867,-0.57466 16.20794,4.93599 9.99165,12.53416 -3.44232,4.2078 -7.84655,2.61477 -12.49239,3.28201 -16.97791,2.43865 -20.80071,32.82909 -57.60162,37.6375 z"
     id="path6"
     style="stroke-width:1.129" />
  <path
     d="m 193.42118,262.77475 c -7.51124,-4.7689 -11.91097,-13.63607 -0.73386,-16.28471 7.05287,-1.67205 13.42721,9.95667 28.31648,3.83973 3.50894,-1.44173 6.6261,-3.41974 10.31117,-4.46068 11.02808,0.51708 11.86467,14.35187 -2.26027,18.7177 -12.17628,3.76296 -24.2069,4.22021 -35.63352,-1.81204 z"
     id="path7"
     style="stroke-width:1.129" />
  <path
     d="m 338.39732,329.15662 c -4.86374,0.85691 -13.96236,0.26306 -14.5675,-6.27725 -1.03868,-11.21097 14.39477,-8.54653 20.60652,-11.86805 16.891,-9.03201 18.14982,-32.27814 50.31168,-35.78481 7.3656,-0.98224 18.59916,2.82702 13.00835,11.34533 -3.24701,4.94841 -9.2533,3.75392 -14.28073,4.65261 -24.5682,4.38617 -23.72483,31.47654 -55.07832,37.93217 z"
     id="path8"
     style="stroke-width:1.129" />
  <path
     d="m 193.17166,296.5443 c -9.91714,-2.69379 -10.95808,-15.86698 -0.78916,-16.54438 3.54618,-0.23709 6.94561,1.41577 10.27503,2.42848 10.8689,3.3091 19.2506,0.15693 29.52676,-2.71976 5.61115,-0.49451 10.07408,4.13892 8.61767,10.01875 -3.05959,12.35353 -38.77215,9.347 -47.6303,6.81691 z"
     id="path9"
     style="stroke-width:1.129" />
</svg>
