<?xml version="1.0" encoding="UTF-8" standalone="no"?>


<svg
   width="800"
   height="800"
   viewBox="0 0 24 24"
   version="1.1"
   id="svg2"
   xmlns="http://www.w3.org/2000/svg"
   xmlns:svg="http://www.w3.org/2000/svg">
  <defs
     id="defs2" />
  <path
     d="m 18.5,9.00002 h -2 m 0,0 h -2 m 2,0 V 7 m 0,2.00002 V 11"
     stroke-width="2"
     stroke-linecap="round"
     id="path1"
     style="fill:#e1e1e1;fill-opacity:1;stroke:#e1e1e1;stroke-opacity:1" />
  <path
     d="M 8.96173,19.3786 9.43432,18.7963 Z M 12,5.57412 11.4522,6.08635 C 11.594,6.23803 11.7923,6.32412 12,6.32412 c 0.2077,0 0.406,-0.08609 0.5478,-0.23777 z m 3.0383,13.80458 0.4726,0.5823 z M 12,21 V 20.25 Z M 2.65159,13.6821 c 0.21436,0.3545 0.67546,0.468 1.02989,0.2537 0.35443,-0.2144 0.46798,-0.6755 0.25362,-1.0299 z m 3.88574,2.4886 C 6.24836,15.8739 5.77352,15.8676 5.47676,16.1566 5.18,16.4455 5.17369,16.9204 5.46267,17.2171 Z M 2.75,9.3175 C 2.75,6.41289 4.01766,4.61731 5.58602,4.00319 7.15092,3.39043 9.34039,3.82778 11.4522,6.08635 L 12.5478,5.06189 C 10.1598,2.50784 7.34924,1.70187 5.0391,2.60645 2.73242,3.50967 1.25,5.99209 1.25,9.3175 Z M 15.5109,19.961 c 1.4924,-1.2111 3.2805,-2.8342 4.7018,-4.647 1.4069,-1.7944 2.5373,-3.8786 2.5373,-5.99653 h -1.5 c 0,1.61143 -0.8793,3.36393 -2.2177,5.07093 -1.3239,1.6886 -3.0167,3.2313 -4.4666,4.4079 z M 22.75,9.31747 C 22.75,5.99208 21.2676,3.50966 18.9609,2.60645 16.6508,1.70187 13.8402,2.50784 11.4522,5.06189 l 1.0956,1.02446 C 14.6596,3.82778 16.8491,3.39042 18.414,4.00319 19.9823,4.6173 21.25,6.41287 21.25,9.31747 Z M 8.48914,19.961 C 9.76058,20.9928 10.6423,21.75 12,21.75 v -1.5 c -0.7229,0 -1.1731,-0.3237 -2.56568,-1.4537 z M 14.5657,18.7963 C 13.1731,19.9263 12.7229,20.25 12,20.25 v 1.5 c 1.3577,0 2.2394,-0.7572 3.5109,-1.789 z M 3.9351,12.9059 C 3.18811,11.6708 2.75,10.455 2.75,9.3175 h -1.5 c 0,1.5122 0.57646,3.0004 1.40159,4.3646 z m 5.49922,5.8904 C 8.51731,18.0521 7.49893,17.1582 6.53733,16.1707 l -1.07466,1.0464 c 1.01281,1.0401 2.07729,1.9737 3.02647,2.7439 z"
     id="path2"
     style="fill:#e1e1e1;fill-opacity:1;stroke:none;stroke-opacity:1" />
</svg>
