<?xml version="1.0" encoding="UTF-8" standalone="no"?>
<!-- Uploaded to: SVG Repo, www.svgrepo.com, Generator: SVG Repo Mixer Tools -->

<svg
   width="800px"
   height="800px"
   viewBox="0 0 48 48"
   fill="none"
   version="1.1"
   id="svg9"
   sodipodi:docname="hpv.svg"
   inkscape:version="1.3.2 (1:1.3.2+202311252150+091e20ef0f)"
   xmlns:inkscape="http://www.inkscape.org/namespaces/inkscape"
   xmlns:sodipodi="http://sodipodi.sourceforge.net/DTD/sodipodi-0.dtd"
   xmlns="http://www.w3.org/2000/svg"
   xmlns:svg="http://www.w3.org/2000/svg">
  <defs
     id="defs9" />
  <sodipodi:namedview
     id="namedview9"
     pagecolor="#ffffff"
     bordercolor="#666666"
     borderopacity="1.0"
     inkscape:showpageshadow="2"
     inkscape:pageopacity="0.0"
     inkscape:pagecheckerboard="0"
     inkscape:deskcolor="#d1d1d1"
     inkscape:zoom="0.73450717"
     inkscape:cx="261.39976"
     inkscape:cy="406.39494"
     inkscape:window-width="1920"
     inkscape:window-height="1027"
     inkscape:window-x="0"
     inkscape:window-y="25"
     inkscape:window-maximized="1"
     inkscape:current-layer="svg9" />
  <path
     fill-rule="evenodd"
     clip-rule="evenodd"
     d="m 13.395838,11.883762 c 2.492271,-2.1611794 5.671639,-3.5508622 9.166609,-3.7974406 v 2.2051756 c 0,0.619869 0.502472,1.122341 1.122341,1.122341 0.619869,0 1.122342,-0.502472 1.122342,-1.122341 V 8.0863214 c 3.494857,0.2465784 6.674114,1.6361489 9.166272,3.7971046 l -1.55882,1.558931 c -0.438274,0.438274 -0.438274,1.148941 0,1.587215 0.438274,0.438275 1.148941,0.438275 1.587215,0 l 1.558931,-1.558932 c 2.161069,2.492271 3.550752,5.671639 3.79733,9.166609 h -2.205176 c -0.619869,0 -1.122341,0.502472 -1.122341,1.122341 0,0.619869 0.502472,1.122342 1.122341,1.122342 h 2.205176 c -0.246578,3.494857 -1.636149,6.674114 -3.797217,9.166384 l -1.559044,-1.559044 c -0.438274,-0.438274 -1.148941,-0.438274 -1.587215,0 -0.438386,0.438274 -0.438386,1.148941 0,1.587215 l 1.559044,1.559043 c -2.49227,2.161069 -5.671639,3.550752 -9.166496,3.79733 v -2.205176 c 0,-0.619869 -0.502473,-1.122341 -1.122342,-1.122341 -0.619869,0 -1.122341,0.502472 -1.122341,1.122341 v 2.205176 c -3.494746,-0.246578 -6.674001,-1.636149 -9.166271,-3.797105 l 1.558819,-1.558819 c 0.438274,-0.438275 0.438274,-1.148829 0,-1.587216 -0.438274,-0.438274 -1.148941,-0.438274 -1.587215,0 l -1.55882,1.558821 C 9.6477806,31.55627 8.2580978,28.376902 8.0115194,24.881932 h 2.2051756 c 0.619869,0 1.122341,-0.502473 1.122341,-1.122342 0,-0.619869 -0.502472,-1.122341 -1.122341,-1.122341 H 8.0115194 c 0.2465784,-3.494858 1.6361489,-6.674001 3.7971046,-9.166271 l 1.559156,1.559155 c 0.438274,0.438274 1.148941,0.438274 1.587215,0 0.438274,-0.438274 0.438274,-1.14894 0,-1.587214 z m 2.432563,9.069976 c 0,-0.61987 -0.502473,-1.122341 -1.122342,-1.122341 -0.619869,0 -1.12234,0.502471 -1.12234,1.122341 v 2.805852 2.805854 c 0,0.619869 0.502471,1.12234 1.12234,1.12234 0.619869,0 1.122342,-0.502471 1.122342,-1.12234 v -1.683512 h 2.244682 v 1.683512 c 0,0.619869 0.502472,1.12234 1.122341,1.12234 0.619869,0 1.122341,-0.502471 1.122341,-1.12234 V 23.75959 20.953738 c 0,-0.61987 -0.502472,-1.122341 -1.122341,-1.122341 -0.619869,0 -1.122341,0.502471 -1.122341,1.122341 v 1.683511 h -2.244682 z m 5.611705,0 c 0,-0.61987 0.502472,-1.122341 1.122341,-1.122341 h 2.244683 c 1.549616,0 2.805852,1.256236 2.805852,2.805852 0,1.549617 -1.256236,2.805853 -2.805852,2.805853 h -1.122342 v 1.122342 c 0,0.619869 -0.502471,1.12234 -1.122341,1.12234 -0.619869,0 -1.122341,-0.502471 -1.122341,-1.12234 v -2.244683 z m 2.244682,2.244682 h 1.122342 c 0.309878,0 0.56117,-0.251293 0.56117,-0.561171 0,-0.309879 -0.251292,-0.56117 -0.56117,-0.56117 h -1.122342 z m 6.653799,-2.66152 c -0.230192,-0.575536 -0.883394,-0.855449 -1.45893,-0.625256 -0.575536,0.230192 -0.855449,0.883395 -0.625257,1.458931 l 2.244682,5.611706 c 0.170485,0.426041 0.583169,0.705503 1.042094,0.705503 0.458925,0 0.87161,-0.279462 1.042094,-0.705503 l 2.244683,-5.611706 c 0.230192,-0.575536 -0.04973,-1.228739 -0.625257,-1.458931 -0.575536,-0.230193 -1.228739,0.04972 -1.458931,0.625256 l -1.202589,3.006528 z"
     fill="#333333"
     id="path1"
     style="stroke-width:1.12234;fill:#e1e1e1;fill-opacity:1" />
  <path
     fill-rule="evenodd"
     clip-rule="evenodd"
     d="m 20.317765,2.4351095 c 0,-0.6198466 0.502472,-1.1223411 1.122341,-1.1223411 h 4.489364 c 0.619869,0 1.122342,0.5024945 1.122342,1.1223411 0,0.6198465 -0.502473,1.1223411 -1.122342,1.1223411 h -1.12234 v 2.2446823 c 0,0.6198465 -0.502473,1.1223411 -1.122342,1.1223411 -0.619869,0 -1.122341,-0.5024946 -1.122341,-1.1223411 V 3.5574506 h -1.122341 c -0.619869,0 -1.122341,-0.5024946 -1.122341,-1.1223411 z"
     fill="#333333"
     id="path2"
     style="stroke-width:1.12234;fill:#e1e1e1;fill-opacity:1" />
  <path
     fill-rule="evenodd"
     clip-rule="evenodd"
     d="m 23.684788,40.594707 c 0.619869,0 1.122342,0.502473 1.122342,1.122342 v 2.244682 h 1.12234 c 0.619869,0 1.122342,0.502471 1.122342,1.12234 0,0.619869 -0.502473,1.122342 -1.122342,1.122342 h -4.489364 c -0.619869,0 -1.122341,-0.502473 -1.122341,-1.122342 0,-0.619869 0.502472,-1.12234 1.122341,-1.12234 h 1.122341 v -2.244682 c 0,-0.619869 0.502472,-1.122342 1.122341,-1.122342 z"
     fill="#333333"
     id="path3"
     style="stroke-width:1.12234;fill:#e1e1e1;fill-opacity:1" />
  <path
     fill-rule="evenodd"
     clip-rule="evenodd"
     d="m 10.98707,41.219514 c -0.438386,0.438274 -1.1489404,0.438274 -1.5873268,0 L 6.2253248,38.045085 c -0.4382967,-0.438387 -0.4382967,-1.14894 0,-1.587328 0.4383079,-0.438274 1.1489294,-0.438274 1.5872373,0 l 0.7935737,0.79372 1.5872142,-1.587326 c 0.438387,-0.438274 1.148941,-0.438274 1.587328,0 0.438274,0.438386 0.438274,1.14894 0,1.587326 l -1.587328,1.587215 0.79372,0.793608 c 0.438274,0.438274 0.438274,1.14894 0,1.587214 z"
     fill="#333333"
     id="path4"
     style="stroke-width:1.12234;fill:#e1e1e1;fill-opacity:1" />
  <path
     fill-rule="evenodd"
     clip-rule="evenodd"
     d="m 35.589123,11.855816 c -0.438274,-0.438386 -0.438274,-1.148941 0,-1.587327 l 1.587216,-1.5872145 -0.793608,-0.793585 c -0.438274,-0.4382966 -0.438274,-1.1489293 0,-1.587226 0.438274,-0.4383079 1.148941,-0.4383079 1.587215,0 l 3.174542,3.1744184 c 0.438274,0.4383864 0.438274,1.1489401 0,1.5872141 -0.438387,0.438387 -1.14894,0.438387 -1.587327,0 l -0.793607,-0.793607 -1.587215,1.587327 c -0.438275,0.438274 -1.148941,0.438274 -1.587216,0 z"
     fill="#333333"
     id="path5"
     style="stroke-width:1.12234;fill:#e1e1e1;fill-opacity:1" />
  <path
     fill-rule="evenodd"
     clip-rule="evenodd"
     d="m 2.3603075,27.126614 c -0.6198466,0 -1.1223411,-0.502473 -1.1223411,-1.122342 v -4.489364 c 0,-0.619869 0.5024945,-1.122341 1.1223411,-1.122341 0.6198465,0 1.1223411,0.502472 1.1223411,1.122341 v 1.122341 h 2.2446823 c 0.6198465,0 1.1223411,0.502472 1.1223411,1.122341 0,0.619869 -0.5024946,1.122342 -1.1223411,1.122342 H 3.4826486 v 1.12234 c 0,0.619869 -0.5024946,1.122342 -1.1223411,1.122342 z"
     fill="#333333"
     id="path6"
     style="stroke-width:1.12234;fill:#e1e1e1;fill-opacity:1" />
  <path
     fill-rule="evenodd"
     clip-rule="evenodd"
     d="m 40.519905,23.75959 c 0,-0.619869 0.502473,-1.122341 1.122342,-1.122341 h 2.244682 v -1.122341 c 0,-0.619869 0.502471,-1.122341 1.12234,-1.122341 0.619869,0 1.122342,0.502472 1.122342,1.122341 v 4.489364 c 0,0.619869 -0.502473,1.122342 -1.122342,1.122342 -0.619869,0 -1.12234,-0.502473 -1.12234,-1.122342 v -1.12234 h -2.244682 c -0.619869,0 -1.122342,-0.502473 -1.122342,-1.122342 z"
     fill="#333333"
     id="path7"
     style="stroke-width:1.12234;fill:#e1e1e1;fill-opacity:1" />
  <path
     fill-rule="evenodd"
     clip-rule="evenodd"
     d="m 6.2252911,11.062096 c -0.4383078,-0.438274 -0.4383078,-1.1489398 0,-1.5872141 L 9.3997432,6.3004074 c 0.4382742,-0.4383079 1.1489408,-0.4383079 1.5872148,0 0.438274,0.4382967 0.438274,1.1489293 0,1.587226 l -0.793608,0.7936411 1.587215,1.5872145 c 0.438387,0.438274 0.438387,1.148941 0,1.587215 -0.438274,0.438274 -1.148941,0.438274 -1.587215,0 L 8.6061358,10.268489 7.8125172,11.062096 c -0.4382967,0.438275 -1.1489295,0.438275 -1.5872261,0 z"
     fill="#333333"
     id="path8"
     style="stroke-width:1.12234;fill:#e1e1e1;fill-opacity:1" />
  <path
     fill-rule="evenodd"
     clip-rule="evenodd"
     d="m 35.589123,35.664151 c 0.438275,-0.438274 1.148941,-0.438274 1.587216,0 l 1.587215,1.587214 0.793607,-0.793608 c 0.438275,-0.438274 1.14894,-0.438274 1.587215,0 0.438274,0.438275 0.438274,1.148941 0,1.587216 l -3.17443,3.174429 c -0.438274,0.438386 -1.148941,0.438386 -1.587215,0 -0.438274,-0.438274 -0.438274,-1.14894 0,-1.587214 l 0.793608,-0.793608 -1.587216,-1.587215 c -0.438386,-0.438274 -0.438386,-1.14894 0,-1.587214 z"
     fill="#333333"
     id="path9"
     style="stroke-width:1.12234;fill:#e1e1e1;fill-opacity:1" />
</svg>
