<?xml version="1.0" encoding="iso-8859-1"?>
<!-- Uploaded to: SVG Repo, www.svgrepo.com, Generator: SVG Repo Mixer Tools -->
<svg height="800px" width="800px" version="1.1" id="Layer_1" xmlns="http://www.w3.org/2000/svg" xmlns:xlink="http://www.w3.org/1999/xlink" 
	 viewBox="0 0 512 512" xml:space="preserve">
<path style="fill:#FF9F99;" d="M204.8,499.2V396.8c0-14.114-11.486-25.6-25.6-25.6h-76.8c-49.408,0-89.6-40.192-89.6-89.6
	S52.992,192,102.4,192c-49.408,0-89.6-40.192-89.6-89.6s40.192-89.6,89.6-89.6h307.2c24.704,0,44.8,20.096,44.8,44.8
	s-20.096,44.8-44.8,44.8l0,0c49.408,0,89.6,40.192,89.6,89.6s-40.192,89.6-89.6,89.6H204.8c49.408,0,89.6,40.192,89.6,89.6v128
	H204.8z"/>
<path style="fill:#573A32;" d="M450.406,98.193C460.774,87.774,467.2,73.421,467.2,57.6c0-31.761-25.839-57.6-57.6-57.6H102.4
	C45.935,0,0,45.935,0,102.4c0,38.81,21.956,72.235,53.854,89.6C21.956,209.365,0,242.79,0,281.6C0,338.065,45.935,384,102.4,384
	h76.8c7.066,0,12.8,5.734,12.8,12.8v102.4c0,7.066,5.734,12.8,12.8,12.8h89.6c7.066,0,12.8-5.734,12.8-12.8v-128
	c0-30.729-13.884-58.018-35.388-76.8H409.6c56.465,0,102.4-45.935,102.4-102.4C512,150.05,486.596,114.005,450.406,98.193z
	 M409.6,268.8H102.4c-7.066,0-12.8,5.726-12.8,12.8c0,7.066,5.734,12.8,12.8,12.8h102.4c42.419,0,76.8,34.381,76.8,76.8v115.2h-64
	v-89.6c0-21.171-17.229-38.4-38.4-38.4h-76.8c-42.419,0-76.8-34.381-76.8-76.8s34.381-76.8,76.8-76.8h307.2
	c7.066,0,12.8-5.734,12.8-12.8c0-7.074-5.734-12.8-12.8-12.8H102.4c-42.419,0-76.8-34.381-76.8-76.8s34.381-76.8,76.8-76.8h307.2
	c17.673,0,32,14.327,32,32s-14.327,32-32,32H102.4c-7.066,0-12.8,5.726-12.8,12.8c0,7.066,5.734,12.8,12.8,12.8h307.2
	c42.419,0,76.8,34.381,76.8,76.8S452.019,268.8,409.6,268.8z"/>
</svg>