<?xml version="1.0" encoding="UTF-8" standalone="no"?>
<!-- Created with Inkscape (http://www.inkscape.org/) -->

<svg
   width="500"
   height="500"
   viewBox="0 0 132.29166 132.29167"
   version="1.1"
   id="svg1"
   xml:space="preserve"
   xmlns="http://www.w3.org/2000/svg"
   xmlns:svg="http://www.w3.org/2000/svg"><defs
     id="defs1" /><g
     id="layer1"><circle
       style="fill:#f4b68e;fill-opacity:1;fill-rule:evenodd;stroke-width:0.331536"
       id="path5"
       cx="66.872383"
       cy="65.445213"
       r="56.785332" /><g
       id="g4"
       transform="matrix(1.6639121,0,0,1.6639121,-44.931849,-48.828036)"><path
         style="fill:#6c391c;fill-opacity:1;stroke:none;stroke-width:0.264583px;stroke-linecap:butt;stroke-linejoin:miter;stroke-opacity:1"
         d="m 79.660812,51.423514 c 3.143387,-0.110535 7.566282,1.615413 8.061434,3.602008 0.495152,1.986595 2.449424,3.952603 3.285852,5.526069 1.385972,2.495479 4.265849,6.75528 0.159708,8.022468 -5.191456,1.218952 -1.396046,1.219313 -5.0068,7.125385 -3.610754,5.906072 -4.586356,1.885127 -7.261487,3.821888 -2.675131,1.936761 -0.610983,2.537077 -1.424829,3.514619 -0.813846,0.977542 -2.067308,1.831466 -3.237783,2.063488 -1.170475,0.232022 -2.27938,-1.352007 -3.268768,-0.581393 -0.989388,0.770614 0.975077,3.140436 -0.299588,4.193765 -1.274665,1.053329 -3.69266,2.231725 -5.676995,-0.674544 -1.984335,-2.906269 -7.905445,-5.191844 -10.76783,-5.906484 -2.862385,-0.71464 -3.584059,0.840447 -5.419669,0.06713 -1.83561,-0.773317 -3.469404,-2.814997 -4.503963,-4.72957 -1.034559,-1.914573 -1.198871,-3.89076 -1.48691,-6.354593 -0.288039,-2.463833 -1.33936,-6.143113 -0.02426,-8.357407 1.3151,-2.214294 4.316259,-2.081863 6.239767,-3.376695 1.923508,-1.294832 3.469717,-3.349422 5.262552,-4.334025 1.792835,-0.984603 3.156172,-1.054108 5.185719,-1.692611 2.029547,-0.638503 5.036031,-2.228555 6.996822,-2.119255 1.960791,0.1093 3.142872,0.848315 4.109646,1.764115 0.966774,0.9158 0.718753,2.947897 1.560475,3.152674 1.072896,0.261018 3.461072,-4.584411 7.516907,-4.727032 z"
         id="path1" /><path
         style="fill:#f7c4a7;fill-opacity:1;stroke:none;stroke-width:0.264583px;stroke-linecap:butt;stroke-linejoin:miter;stroke-opacity:1"
         d="m 64.545905,51.536478 c -0.882834,0.329498 -2.084608,2.211707 -2.578068,3.402316 -0.49346,1.190609 -0.409993,2.315612 -0.474422,3.431524 -0.06443,1.115912 -0.725203,2.42637 0.07145,3.24167 0.796653,0.8153 2.224986,-0.203711 3.59327,0.162428 1.368284,0.366139 3.114545,1.2769 4.352774,2.253697 1.238229,0.976797 1.641835,2.752566 2.982529,3.450921 1.340694,0.698355 3.144716,0.712599 4.485266,0.460745 1.34055,-0.251854 2.992123,-0.320702 3.27033,-1.676808 0.278207,-1.356106 -1.894227,-2.627336 -2.956065,-3.564728 -1.061838,-0.937392 -2.141112,-1.937902 -3.260228,-2.080482 -1.119116,-0.14258 -1.900523,1.061647 -2.759123,0.897686 -0.8586,-0.163961 -1.486635,-0.907773 -1.804302,-1.495028 -0.317667,-0.587255 -0.401237,-0.918036 -0.187253,-1.652225 0.289085,-0.991864 2.220623,-2.431278 2.301158,-2.799395 0.106756,-0.487969 0.161847,-1.161544 -0.658659,-2.202 -0.820506,-1.040456 -1.491317,-1.37378 -2.266379,-1.722027 -0.775062,-0.348247 -1.512155,-0.427447 -2.209249,-0.435925 -0.697094,-0.0085 -1.020195,-0.0019 -1.903029,0.327631 z"
         id="path2" /><path
         style="fill:#2d1304;fill-opacity:1;stroke:none;stroke-width:0.264583px;stroke-linecap:butt;stroke-linejoin:miter;stroke-opacity:1"
         d="m 55.268857,68.638358 c 1.593487,-0.709757 3.671559,-1.446713 5.220337,-0.969288 1.548778,0.477425 2.406976,1.796564 3.133373,3.10977 0.726397,1.313206 1.453462,3.254271 1.007592,4.477758 -0.44587,1.223487 -1.593504,2.035043 -2.565122,1.952146 -0.971618,-0.0829 -1.037455,-1.383896 -1.791044,-1.922375 -0.753589,-0.538479 -1.674507,-1.113238 -2.675051,-1.194932 -1.000544,-0.08169 -2.046773,0.714067 -2.991708,0.786783 -0.944935,0.07272 -1.866355,0.321736 -2.579047,-0.268049 -0.712692,-0.589785 -1.266141,-1.545595 -0.850625,-2.832587 0.415516,-1.286992 2.497808,-2.429469 4.091295,-3.139226 z"
         id="path3" /><path
         style="fill:#0c0704;fill-opacity:1;stroke:#000000;stroke-width:0.264583px;stroke-linecap:butt;stroke-linejoin:miter;stroke-opacity:1"
         d="m 67.310303,72.406459 c 0.571088,-0.484106 1.497372,-0.922244 2.524623,-0.867545 1.027251,0.0547 2.450126,0.745336 3.172973,1.483656 0.722847,0.73832 1.095241,1.648258 1.090319,2.466605 -0.0049,0.818347 -0.304886,1.608931 -0.919128,2.013466 -0.614242,0.404535 -1.346444,0.203916 -2.19905,0.04888 -0.852606,-0.155036 -1.99701,-0.503416 -2.783729,-1.118221 -0.786719,-0.614805 -1.700171,-1.623042 -1.752515,-2.423544 -0.05234,-0.800502 0.295419,-1.119191 0.866507,-1.603297 z"
         id="path4" /></g></g></svg>
