<?xml version="1.0" encoding="UTF-8" standalone="no"?>
<!-- Uploaded to: SVG Repo, www.svgrepo.com, Generator: SVG Repo Mixer Tools -->

<svg
   width="800px"
   height="800px"
   viewBox="0 0 40 40"
   fill="none"
   version="1.1"
   id="svg2"
   sodipodi:docname="overweight.svg"
   inkscape:version="1.3.2 (1:1.3.2+202311252150+091e20ef0f)"
   xmlns:inkscape="http://www.inkscape.org/namespaces/inkscape"
   xmlns:sodipodi="http://sodipodi.sourceforge.net/DTD/sodipodi-0.dtd"
   xmlns="http://www.w3.org/2000/svg"
   xmlns:svg="http://www.w3.org/2000/svg">
  <defs
     id="defs2" />
  <sodipodi:namedview
     id="namedview2"
     pagecolor="#ffffff"
     bordercolor="#666666"
     borderopacity="1.0"
     inkscape:showpageshadow="2"
     inkscape:pageopacity="0.0"
     inkscape:pagecheckerboard="0"
     inkscape:deskcolor="#d1d1d1"
     inkscape:zoom="0.73450717"
     inkscape:cx="194.68837"
     inkscape:cy="399.58766"
     inkscape:window-width="1920"
     inkscape:window-height="1027"
     inkscape:window-x="0"
     inkscape:window-y="25"
     inkscape:window-maximized="1"
     inkscape:current-layer="svg2" />
  <g
     id="g2"
     transform="matrix(0.98387801,0,0,0.98387801,0.3224396,0.37091354)">
    <path
       d="m 12.472863,15.359682 -4.6099998,3.7903 c -0.7465,0.6138 -1.8493,0.5062 -2.46315,-0.2404 -0.61381,-0.7465 -0.5062,-1.8494 0.24035,-2.4632 l 7.1388998,-5.8695 c 0.4921,-0.4046 1.1094,-0.6258001 1.7465,-0.6258001 h 10.7741 c 0.6262,0 1.2337,0.2137001 1.7219,0.6058001 l 7.3228,5.8808 c 0.7536,0.6051 0.8739,1.7066 0.2687,2.4602 -0.6052,0.7536 -1.7067,0.8739 -2.4602,0.2687 l -4.3746,-3.5131 c 0.809,1.8472 1.4225,4.404 1.2229,7.7976 -0.2167,3.6834 -2.1006,5.1052 -2.1006,5.1052 0,0 -2,7.9648 -2,9.7463 0,0.9063 -0.7559,1.6478 -1.6797,1.6478 -0.9238,0 -1.6797,-0.7415 -1.6797,-1.6478 l -0.5401,-9.7463 h -2 l -0.5428,9.7463 c 0,0.9063 -0.7559,1.6478 -1.6797,1.6478 -0.9239,0 -1.6797,-0.7415 -1.6797,-1.6478 l -2,-9.7463 c 0,0 -2.3289,-1.3381 -2.5977,-5.1052 0,-3.3933 0.9411,-6.1213 1.9718,-8.0914 z"
       fill="#e1e1e1"
       id="path1" />
    <path
       d="m 24.0001,3.9528919 c 0,2.21009 -1.7909,4.00179 -4.0001,4.00179 -2.2092,0 -4.0001,-1.7917 -4.0001,-4.00179 0,-2.21014 1.7909,-4.00180997 4.0001,-4.00180997 2.2092,0 4.0001,1.79166997 4.0001,4.00180997 z"
       fill="#e1e1e1"
       id="path2" />
  </g>
</svg>
