<?xml version="1.0" encoding="UTF-8" standalone="no"?>
<svg
   width="512"
   height="512"
   version="1.1"
   id="svg18"
   sodipodi:docname="prostate.svg"
   inkscape:version="1.3.2 (1:1.3.2+202311252150+091e20ef0f)"
   xmlns:inkscape="http://www.inkscape.org/namespaces/inkscape"
   xmlns:sodipodi="http://sodipodi.sourceforge.net/DTD/sodipodi-0.dtd"
   xmlns="http://www.w3.org/2000/svg"
   xmlns:svg="http://www.w3.org/2000/svg">
  <sodipodi:namedview
     id="namedview18"
     pagecolor="#ffffff"
     bordercolor="#666666"
     borderopacity="1.0"
     inkscape:showpageshadow="2"
     inkscape:pageopacity="0.0"
     inkscape:pagecheckerboard="0"
     inkscape:deskcolor="#d1d1d1"
     inkscape:zoom="1.4960938"
     inkscape:cx="256"
     inkscape:cy="255.6658"
     inkscape:window-width="1920"
     inkscape:window-height="1027"
     inkscape:window-x="0"
     inkscape:window-y="25"
     inkscape:window-maximized="1"
     inkscape:current-layer="svg18" />
  <path
     fill="#FE8265"
     transform="scale(0.5 0.5)"
     d="M486.401 533.416C482.14 521.689 478.695 509.978 484.471 497.925C487.403 491.806 492.304 488.646 498.597 486.588C508.221 483.441 518.638 483.564 527.744 488.183C534.278 491.498 539.748 496.339 542.137 503.44C542.944 505.839 543.449 508.213 543.2 510.75C542.412 518.764 538.766 527.081 536.449 534.754C533.991 542.891 532.088 551.26 530.351 559.578C524.612 587.07 522.619 622.011 535.812 647.669C539.441 654.725 544.862 661.87 551.412 666.421C556.958 669.584 562.061 671.366 568.232 672.968C551.976 701.152 543.696 732.212 542.815 764.633C542.591 772.862 543.95 781.335 543.454 789.461L544.022 789.865C547.839 792.512 551.84 794.21 555.576 797.201C572.493 810.746 582.997 831.562 587.275 852.6C591.244 872.117 590.723 892.89 585.514 912.131C584.614 915.455 583.756 919.41 582.207 922.473C576.855 941.293 562.53 959.407 546.25 969.986C531.957 979.273 513.568 981.772 497.066 978.19C477.532 973.949 460.765 960.054 450.136 943.504C434.462 919.099 428.813 887.634 435.193 859.246C440.498 835.643 452.041 811.041 471.165 795.588C473.789 793.467 476.807 791.781 479.661 789.981L479.976 787.891C484.461 755.313 477.788 720.533 462.065 691.749C459.58 687.199 456.755 681.765 453.5 677.742C452.477 676.477 450.984 676.708 449.439 676.518C451.99 676.285 454.467 676.633 457.047 676.28C466.574 674.977 474.698 668.896 480.329 661.349C493.39 643.843 496.16 621.224 496.083 600.031C496.039 587.748 495.221 575.813 493.066 563.706L489.077 544.802C488.141 540.936 486.976 537.38 486.401 533.416Z"
     id="path2" />
  <path
     fill="#FB4E1F"
     transform="scale(0.5 0.5)"
     d="M551.412 666.421C556.958 669.584 562.061 671.366 568.232 672.968C551.976 701.152 543.696 732.212 542.815 764.633C542.591 772.862 543.95 781.335 543.454 789.461L538.431 794.828L525.136 791.768C524.668 783.561 523.257 775.492 523.179 767.25C522.934 741.437 530.242 714.038 540.242 690.422L551.248 666.818L551.412 666.421Z"
     id="path3" />
  <path
     fill="#FEB890"
     transform="scale(0.5 0.5)"
     d="M518.612 802.211C521.341 802.313 524.082 802.356 526.75 802.998C538.719 805.877 548.757 816.562 554.806 826.848C565.655 845.295 570.069 871.82 564.34 892.68C562.589 899.054 560.136 905.253 556.718 910.938C552.098 918.621 544.684 925.288 535.815 927.421L535 927.609C531.592 928.427 528.513 928.495 525.028 928.481C516.374 927.052 509.374 925.108 502.5 919.433L501.404 918.539C487.235 906.541 478.799 888.294 477.222 869.921C475.719 852.415 478.617 830.958 490.573 817.25C498.38 808.299 506.741 803.245 518.612 802.211Z"
     id="path4" />
  <path
     fill="#FB4E1F"
     transform="scale(0.5 0.5)"
     d="M486.401 533.416C488.605 536.921 489.845 541.013 491.36 544.854C497.218 559.705 500.199 575.503 501.875 591.324C503.808 609.558 504.053 627.851 499.946 645.831C497.448 656.767 493.69 666.688 487.45 676.069C485.56 678.911 483.444 681.793 481.25 684.407C480.918 684.803 478.553 687.282 478.547 687.386C478.509 687.97 482.424 693.985 482.973 695.05C487.194 703.245 490.727 712.181 493.448 720.993C498.939 738.78 501.492 758.5 500.41 777.083C500.068 782.951 498.965 788.715 498.125 794.518C480.824 803.501 470.507 819.131 464.731 837.391C456.256 864.179 456.413 894.37 469.561 919.651C472.492 925.285 476.278 930.315 480.252 935.235C488.97 946.027 501.132 952.935 514.468 956.258C527.792 959.578 544.17 955.691 555.709 948.585C560.499 945.635 565.107 941.742 568.989 937.678C572.499 934.004 575.299 930.028 578.41 926.038C579.498 924.643 580.444 922.833 582.207 922.473C576.855 941.293 562.53 959.407 546.25 969.986C531.957 979.273 513.568 981.772 497.066 978.19C477.532 973.949 460.765 960.054 450.136 943.504C434.462 919.099 428.813 887.634 435.193 859.246C440.498 835.643 452.041 811.041 471.165 795.588C473.789 793.467 476.807 791.781 479.661 789.981L479.976 787.891C484.461 755.313 477.788 720.533 462.065 691.749C459.58 687.199 456.755 681.765 453.5 677.742C452.477 676.477 450.984 676.708 449.439 676.518C451.99 676.285 454.467 676.633 457.047 676.28C466.574 674.977 474.698 668.896 480.329 661.349C493.39 643.843 496.16 621.224 496.083 600.031C496.039 587.748 495.221 575.813 493.066 563.706L489.077 544.802C488.141 540.936 486.976 537.38 486.401 533.416Z"
     id="path5" />
  <path
     fill="#FED6B3"
     transform="scale(0.5 0.5)"
     d="M238.62 469.173L237.04 468.471C233.782 466.698 230.937 464.206 227.982 461.99L211.033 449.104C166.129 414.714 126.616 373.061 103.859 320.581C101.105 314.229 98.3707 307.957 96.25 301.358C89.0704 279.018 83.8871 253.632 85.0456 230.066C86.0979 208.66 92.5998 187.215 102.383 168.247C120.529 133.067 152.519 107.615 190.063 95.6935C234.442 81.602 285.127 87.2114 326.33 108.612L306.01 126.673L283.766 150.257C276.849 158.87 269.601 167.394 263.504 176.624C222.603 238.545 211.617 311.443 219.216 384.184L220.228 391.42L226.923 429.219L238.62 469.173Z"
     id="path6" />
  <path
     fill="#FEB890"
     transform="scale(0.5 0.5)"
     d="M226.923 429.219L226.23 428.968C223.83 428.039 221.684 426.043 219.677 424.465L209.297 416.22C175.533 388.244 146.34 352.254 128.408 312.097C112.32 276.071 104.157 232.931 118.824 195.114C127.694 172.244 142.011 152.783 162.094 138.526C170.042 132.885 179.002 128.329 187.894 124.4C225.471 107.798 268.615 112.107 306.01 126.673L283.766 150.257C252.005 141.22 218.854 140.584 189.28 156.956C168.003 168.736 151.757 188.792 145.2 212.235C135.022 248.627 147.217 288.418 165.349 320.335C174.418 336.3 185.687 351.404 197.642 365.31C203.757 372.424 210.271 380.039 218.25 385.102L218.884 384.999L219.216 384.184L220.228 391.42L226.923 429.219Z"
     id="path7" />
  <path
     fill="#FEFEFE"
     transform="scale(0.5 0.5)"
     d="M219.216 384.184L218.884 384.999L218.25 385.102C210.271 380.039 203.757 372.424 197.642 365.31C185.687 351.404 174.418 336.3 165.349 320.335C147.217 288.418 135.022 248.627 145.2 212.235C151.757 188.792 168.003 168.736 189.28 156.956C218.854 140.584 252.005 141.22 283.766 150.257C276.849 158.87 269.601 167.394 263.504 176.624C222.603 238.545 211.617 311.443 219.216 384.184Z"
     id="path8" />
  <path
     fill="#FED6B3"
     transform="scale(0.5 0.5)"
     d="M694.365 104.749C703.743 101.222 714.266 98.8419 724 96.4199C732.548 94.2931 741.084 92.1733 749.805 90.8696C786.197 85.4296 821.469 89.2646 855.108 104.42C862.307 107.664 869.257 112.016 875.753 116.484C902.265 134.722 920.501 159.042 931.755 189.076C943.011 219.117 940.886 252.48 933.112 283C929.455 297.357 924.913 311.118 918.688 324.583C902.6 359.383 879.825 390.362 852.7 417.39C839.772 430.273 825.68 442.049 811.425 453.419L794.785 466.286C792.021 468.354 789.146 470.952 785.895 472.187L783.541 473.009L796.341 433.05L801.567 407C802.467 401.887 804.15 395.901 803.23 390.726L803.773 390.405L805.282 380.477C810.859 338.209 808.145 295.273 796.843 254.172C793.26 241.143 788.987 227.97 783.363 215.672C772.327 191.536 758.164 170.102 742.073 149.12L718.992 125.166L694.365 104.749Z"
     id="path9" />
  <path
     fill="#FEB890"
     transform="scale(0.5 0.5)"
     d="M718.992 125.166C724.631 122.656 731.749 121.871 737.799 120.636C761.249 115.853 783.094 114.143 806.875 117.494C815.7 118.738 825.133 120.547 833.464 123.767C863.792 135.489 890.13 158.923 903.268 188.923C907.669 198.972 910.997 209.855 912.47 220.75C915.98 246.711 909.959 277.31 900.402 301.589C889.621 328.976 873.431 355.544 854.375 377.971C843.297 391.008 830.813 403.076 818.333 414.766L803.555 427.699C801.571 429.375 799.279 431.787 796.906 432.843L796.341 433.05L801.567 407C802.467 401.887 804.15 395.901 803.23 390.726L803.773 390.405L804.167 391.2L821.25 372.566C833.857 358.293 845.362 343.291 855.192 326.954C869.308 303.493 878.806 277.416 881.728 250.144C882.969 238.558 882.909 226.484 880.029 215.122C873.992 191.298 859.19 171.929 838.047 159.477C814.793 145.782 788.18 144.543 761.912 146.7C755.487 147.228 748.307 147.506 742.073 149.12L718.992 125.166Z"
     id="path10" />
  <path
     fill="#FEFEFE"
     transform="scale(0.5 0.5)"
     d="M742.073 149.12C748.307 147.506 755.487 147.228 761.912 146.7C788.18 144.543 814.793 145.782 838.047 159.477C859.19 171.929 873.992 191.298 880.029 215.122C882.909 226.484 882.969 238.558 881.728 250.144C878.806 277.416 869.308 303.493 855.192 326.954C845.362 343.291 833.857 358.293 821.25 372.566L804.167 391.2L803.773 390.405L805.282 380.477C810.859 338.209 808.145 295.273 796.843 254.172C793.26 241.143 788.987 227.97 783.363 215.672C772.327 191.536 758.164 170.102 742.073 149.12Z"
     id="path11" />
  <defs
     id="defs12">
    <linearGradient
       id="gradient_0"
       gradientUnits="userSpaceOnUse"
       x1="586.31573"
       y1="447.69528"
       x2="281.97333"
       y2="573.00922">
      <stop
         offset="0"
         stop-color="#BB1A00"
         id="stop11" />
      <stop
         offset="1"
         stop-color="#DF3202"
         id="stop12" />
    </linearGradient>
  </defs>
  <path
     fill="url(#gradient_0)"
     transform="scale(0.5 0.5)"
     d="M252.08 357.31C263.387 351.855 278.478 350.257 290.837 351.715C318.201 354.945 343.266 368.203 365.268 384.313C368.968 387.022 373.349 389.737 376.662 392.851C386.864 403.216 398.092 412.51 407.938 423.286C412.759 428.563 417.092 434.207 421.409 439.896C423.374 442.486 425.29 445.651 427.578 447.921C428.486 448.823 429.575 449.118 430.75 449.521C450.279 456.229 471.273 460.225 491.802 462.177C512.917 464.185 534.418 464.248 555.378 460.577C567.332 458.484 578.746 454.772 590.436 451.658C591.901 450.615 592.951 448.661 594.004 447.2L600.553 438.62L610.467 427.123C616.879 422.313 622.495 416.116 628.482 410.75C641.531 399.055 655.308 388.358 670.365 379.35C691.169 366.903 714.739 357.407 738.876 354.277C748.972 352.968 759.676 352.889 769.578 355.487C782.682 358.925 794.692 367.471 799.75 380.378C800.83 383.134 801.412 388.186 802.929 390.382L803.23 390.726C804.15 395.901 802.467 401.887 801.567 407L796.341 433.05L783.541 473.009C761.11 529.429 726.741 580.138 681.656 620.929L664.036 635.945C662.203 637.389 660.087 639.466 658.082 640.574L657.55 640.778C652.45 644.857 646.623 648.212 641 651.533C624.177 661.469 605.965 669.775 586.474 672.656C581.19 673.438 575.143 674.063 569.82 673.307L568.232 672.968C562.061 671.366 556.958 669.584 551.412 666.421C544.862 661.87 539.441 654.725 535.812 647.669C522.619 622.011 524.612 587.07 530.351 559.578C532.088 551.26 533.991 542.891 536.449 534.754C538.766 527.081 542.412 518.764 543.2 510.75C543.449 508.213 542.944 505.839 542.137 503.44C539.748 496.339 534.278 491.498 527.744 488.183C518.638 483.564 508.221 483.441 498.597 486.588C492.304 488.646 487.403 491.806 484.471 497.925C478.695 509.978 482.14 521.689 486.401 533.416C486.976 537.38 488.141 540.936 489.077 544.802L493.066 563.706C495.221 575.813 496.039 587.748 496.083 600.031C496.16 621.224 493.39 643.843 480.329 661.349C474.698 668.896 466.574 674.977 457.047 676.28C454.467 676.633 451.99 676.285 449.439 676.518C445.587 676.62 441.438 675.627 437.688 674.8C427.423 672.539 417.776 668.846 408.221 664.531C383.367 653.305 361.04 637.707 340.638 619.72C293.792 578.418 260.642 527.356 238.62 469.173L226.923 429.219L220.228 391.42L220.373 389.5C222.359 386.745 223.903 383.641 225.767 380.794C230.095 374.184 235.36 367.238 241.966 362.775C245.179 360.603 248.678 359.126 252.08 357.31Z"
     id="path12" />
  <path
     fill="#FB4E1F"
     transform="scale(0.5 0.5)"
     d="M290.478 374.684C305.626 372.417 323.967 377.914 337.809 383.855C358.203 392.608 378.29 404.59 395.25 418.998C403.663 426.145 411.46 433.981 419.008 442.023C423.008 446.286 427.461 450.494 431.012 455.119C443.767 471.726 453.956 491.695 461.636 511.125C472.033 537.429 478.087 565.357 478.046 593.69C478.027 606.524 476.998 619.488 471.786 631.391C468.39 639.146 464.668 645.564 456.423 648.752C438.13 651.158 420.138 640.122 405.608 630.195C385.035 616.14 367.091 599.016 350.609 580.402C312.665 537.549 282.429 483.745 271.883 427.061C269.577 414.667 265.347 393.651 273.229 382.828C277.377 377.132 283.935 375.551 290.478 374.684Z"
     id="path13" />
  <path
     fill="#DF3000"
     transform="scale(0.5 0.5)"
     d="M610.467 427.123C616.879 422.313 622.495 416.116 628.482 410.75C641.531 399.055 655.308 388.358 670.365 379.35C691.169 366.903 714.739 357.407 738.876 354.277C748.972 352.968 759.676 352.889 769.578 355.487C782.682 358.925 794.692 367.471 799.75 380.378C800.83 383.134 801.412 388.186 802.929 390.382L803.23 390.726C804.15 395.901 802.467 401.887 801.567 407L796.341 433.05L783.541 473.009C761.11 529.429 726.741 580.138 681.656 620.929L664.036 635.945C662.203 637.389 660.087 639.466 658.082 640.574L657.55 640.778C656.678 640.384 655.878 640.047 654.897 640.246C650.944 641.05 646.127 644.278 642.281 645.847C622.929 653.738 600.428 662 579.431 655.638C568.53 652.335 560.976 643.873 555.89 634.03C535.779 595.113 552.1 525.669 570.072 488.516C574.165 480.054 578.434 471.767 583.31 463.726C585.264 460.502 589.479 455.744 590.349 452.283L590.436 451.658C591.901 450.615 592.951 448.661 594.004 447.2L600.553 438.62L610.467 427.123Z"
     id="path14" />
  <path
     fill="#FB4E1F"
     transform="scale(0.5 0.5)"
     d="M727.251 376.209C737.463 375.652 746.964 377.22 755.489 383.11C763.814 388.861 767.813 397.81 769.415 407.574C773.391 431.814 765.478 457.875 756.07 480C745.811 504.126 732.655 527.073 717.322 548.325C700.564 571.551 681.278 592.383 658.252 609.52C644.231 619.956 629.11 628.982 611.618 631.841C602.367 632.67 591.685 631.596 584.25 625.416C573.709 616.654 569.239 601.565 568.246 588.336C566.966 571.273 570.376 554.339 574.985 538C585.391 501.116 603.578 464.422 628.583 435.243C638.518 423.648 650.17 413.349 662.434 404.279C681.424 390.234 703.283 378.06 727.251 376.209Z"
     id="path15" />
  <defs
     id="defs16">
    <linearGradient
       id="gradient_1"
       gradientUnits="userSpaceOnUse"
       x1="240.26762"
       y1="189.26332"
       x2="820.3891"
       y2="306.17953">
      <stop
         offset="0"
         stop-color="#F86B4A"
         id="stop15" />
      <stop
         offset="1"
         stop-color="#FF926C"
         id="stop16" />
    </linearGradient>
  </defs>
  <path
     fill="url(#gradient_1)"
     transform="scale(0.5 0.5)"
     d="M373.852 78.3082C376.723 76.2168 380.325 74.9295 383.584 73.5195L399.464 66.8084C450.415 46.2029 504.755 39.6399 559.145 48.0696C597.061 53.9462 635.14 68.4557 668.21 87.7565L694.365 104.749L718.992 125.166L742.073 149.12C758.164 170.102 772.327 191.536 783.363 215.672C788.987 227.97 793.26 241.143 796.843 254.172C808.145 295.273 810.859 338.209 805.282 380.477L803.773 390.405L803.23 390.726L802.929 390.382C801.412 388.186 800.83 383.134 799.75 380.378C794.692 367.471 782.682 358.925 769.578 355.487C759.676 352.889 748.972 352.968 738.876 354.277C714.739 357.407 691.169 366.903 670.365 379.35C655.308 388.358 641.531 399.055 628.482 410.75C622.495 416.116 616.879 422.313 610.467 427.123L600.553 438.62L594.004 447.2C592.951 448.661 591.901 450.615 590.436 451.658C578.746 454.772 567.332 458.484 555.378 460.577C534.418 464.248 512.917 464.185 491.802 462.177C471.273 460.225 450.279 456.229 430.75 449.521C429.575 449.118 428.486 448.823 427.578 447.921C425.29 445.651 423.374 442.486 421.409 439.896C417.092 434.207 412.759 428.563 407.938 423.286C398.092 412.51 386.864 403.216 376.662 392.851C373.349 389.737 368.968 387.022 365.268 384.313C343.266 368.203 318.201 354.945 290.837 351.715C278.478 350.257 263.387 351.855 252.08 357.31C248.678 359.126 245.179 360.603 241.966 362.775C235.36 367.238 230.095 374.184 225.767 380.794C223.903 383.641 222.359 386.745 220.373 389.5L220.228 391.42L219.216 384.184C211.617 311.443 222.603 238.545 263.504 176.624C269.601 167.394 276.849 158.87 283.766 150.257L306.01 126.673L326.33 108.612C340.792 97.3393 357.133 85.9243 373.852 78.3082Z"
     id="path16" />
  <path
     fill="#FB4E1F"
     transform="scale(0.5 0.5)"
     d="M376.662 392.851L377.12 392.967C380.336 393.848 383.233 395.884 386.11 397.533L398 404.04L428.378 418.748C440.246 423.815 452.139 428.782 464.5 432.539C498.857 442.983 535.254 446.15 570.552 438.829C579.694 436.933 588.585 434.379 597.464 431.51C601.66 430.155 606.142 427.768 610.467 427.123L600.553 438.62L594.004 447.2C592.951 448.661 591.901 450.615 590.436 451.658C578.746 454.772 567.332 458.484 555.378 460.577C534.418 464.248 512.917 464.185 491.802 462.177C471.273 460.225 450.279 456.229 430.75 449.521C429.575 449.118 428.486 448.823 427.578 447.921C425.29 445.651 423.374 442.486 421.409 439.896C417.092 434.207 412.759 428.563 407.938 423.286C398.092 412.51 386.864 403.216 376.662 392.851Z"
     id="path17" />
  <path
     fill="#FEB890"
     transform="scale(0.5 0.5)"
     d="M538.396 97.6407C543.023 97.5322 547.839 98.398 552.419 98.9947C581.034 102.722 611.15 113.266 636.031 127.905C655.679 139.465 674.383 153.719 689.778 170.595C699.437 181.184 707.652 192.886 715.186 205.051C721.497 215.24 727.623 226.046 730.831 237.65C732.707 244.435 732.351 251.909 729.269 258.298L728.944 258.958L728.689 259.504C726.335 264.234 720.156 268.661 715.172 270.179L714.417 270.383C712.45 270.937 710.628 271.084 708.588 271.2C706.79 271.197 705.092 271.179 703.329 270.794L702.75 270.663C699.718 270.014 696.798 268.871 694.193 267.157L693.5 266.664C690.525 264.626 686.798 261.561 684.916 258.472L684.607 257.945C679.835 250.251 676.5 241.842 671.475 234.188C646.158 195.619 611.033 168.635 566.415 156.219L548.75 152.048C541.147 150.59 533.347 150.612 526.568 146.393L526 146.035L524.958 145.416C519.651 141.933 515.677 135.509 514.568 129.325C513.22 121.813 514.985 114.196 519.503 108.031C523.981 101.921 531.104 98.8016 538.396 97.6407Z"
     id="path18" />
</svg>
