<?xml version="1.0" encoding="UTF-8" standalone="no"?>
<svg
   width="512"
   height="512"
   version="1.1"
   id="svg8"
   sodipodi:docname="knee-psoriasis.svg"
   inkscape:version="1.3.2 (1:1.3.2+202311252150+091e20ef0f)"
   xmlns:inkscape="http://www.inkscape.org/namespaces/inkscape"
   xmlns:sodipodi="http://sodipodi.sourceforge.net/DTD/sodipodi-0.dtd"
   xmlns="http://www.w3.org/2000/svg"
   xmlns:svg="http://www.w3.org/2000/svg">
  <defs
     id="defs8" />
  <sodipodi:namedview
     id="namedview8"
     pagecolor="#ffffff"
     bordercolor="#666666"
     borderopacity="1.0"
     inkscape:showpageshadow="2"
     inkscape:pageopacity="0.0"
     inkscape:pagecheckerboard="0"
     inkscape:deskcolor="#d1d1d1"
     inkscape:zoom="1.1476675"
     inkscape:cx="271.85575"
     inkscape:cy="301.91673"
     inkscape:window-width="1920"
     inkscape:window-height="1027"
     inkscape:window-x="0"
     inkscape:window-y="25"
     inkscape:window-maximized="1"
     inkscape:current-layer="svg8" />
  <path
     d="m 193.21112,485.98806 c -9.98435,-0.52949 -9.69363,-13.13132 -10.9714,-20.49621 l -18.24438,-115.98098 -2.50258,-35.06314 c -0.89114,-13.44602 -0.71531,-29.03097 -6.65358,-41.47095 -1.70335,-3.56755 -3.96217,-6.91333 -5.83436,-10.40195 -22.37439,-41.68674 -4.83533,-89.52154 40.46592,-104.24233 5.90729,-1.91914 12.02139,-3.109 18.02958,-4.6565 33.11002,-8.52677 64.27893,-25.83105 93.201,-43.56992 L 361.53956,68.704068 424.47277,17.84239 c 4.43572,-3.740187 8.48981,-8.5030872 14.09938,-10.4106449 5.76443,-0.2901198 11.45194,5.6903039 8.32797,11.4156749 -1.80327,3.306806 -6.36187,6.344972 -9.20711,8.773026 l -16.09146,13.608158 c -24.04678,20.058628 -48.47119,39.736623 -74.17936,57.653318 l -27.38755,17.915698 c -30.09094,19.25141 -62.67148,38.07023 -97.04128,48.59407 l -17.93567,4.93823 c -7.06618,1.82524 -13.93654,3.58654 -20.48023,6.9373 -25.31954,12.96748 -36.66458,44.06643 -25.08077,70.35305 2.39368,5.43375 5.53265,10.52684 8.11416,15.87767 9.49783,19.68998 9.04327,42.74671 10.28907,64.0941 l 5.54164,47.92071 14.88262,89.16889 c 1.42962,7.73152 6.08313,19.0386 -5.11306,21.30642 z"
     id="path1"
     style="stroke-width:0.999035" />
  <path
     d="m 283.70673,485.70733 c -8.42787,0.0419 -9.1142,-6.18503 -8.65665,-12.55388 l 9.38194,-105.65995 0.14686,-18.62401 c -0.0189,-25.67621 -2.50858,-53.75509 -13.08336,-77.55011 -4.24889,-9.55876 -12.03538,-20.93278 -7.01723,-31.64344 5.74645,-12.26315 19.27139,-12.71472 30.83322,-15.20731 l 25.70219,-6.3079 c 33.79536,-9.20512 66.63064,-22.17959 97.06425,-39.60076 l 29.57244,-17.68392 c 4.74841,-2.89221 9.40892,-6.61861 14.61689,-8.57272 6.22298,-0.42659 12.13727,6.1001 8.30298,12.06435 -2.04504,3.18192 -6.76548,5.35882 -9.93441,7.3539 l -14.89362,9.26305 c -39.70465,23.5992 -77.59106,41.09731 -122.04813,52.92588 l -23.9159,5.54964 c -4.54561,0.91611 -18.68195,2.18689 -21.17354,6.45977 0.72729,6.34487 4.71644,12.86657 7.22701,18.70793 8.64965,20.12756 12.82562,42.47698 14.00048,64.25593 l 0.1119,43.65984 -8.4958,93.56563 c -0.63539,7.43582 1.51454,17.18041 -7.74152,19.59808 z"
     id="path3"
     style="stroke-width:0.999035" />
  <path
     d="m 117.47826,208.31323 c -4.80035,1.44361 -11.05732,-2.71338 -15.39612,-4.51263 L 63.240651,187.60623 C 57.242444,185.08867 44.416832,181.13349 48.385,172.07324 c 1.060974,-2.42167 3.110995,-3.56556 5.441743,-4.46969 5.134042,-0.49651 8.478811,2.1679 13.019427,4.12802 l 38.9314,16.11144 c 4.07107,1.61044 8.45683,3.03806 12.35506,5.01914 8.20908,4.17398 6.47075,11.74367 -0.65437,15.45108 z"
     id="path4"
     style="stroke-width:0.999035" />
  <path
     d="m 379.38799,167.16051 c -15.47205,0.66236 -25.48138,-12.64178 -26.60231,-27.20173 -2.17989,-28.28468 32.04205,-44.790733 56.46447,-46.639947 11.10528,-0.726298 23.38342,5.856344 25.83405,17.434157 l 0.29571,1.44561 c 3.36376,17.63996 -12.56586,27.38155 -24.71912,36.48377 -9.10521,6.81941 -19.71696,16.33821 -31.2728,18.47814 z m 28.11585,-57.61734 c -11.87353,1.2418 -26.57034,6.93031 -34.27191,16.42013 -7.93732,9.78156 -3.87326,29.21978 7.65361,23.95387 6.92132,-3.58154 13.41604,-8.83147 19.61407,-13.54392 5.24893,-3.99115 20.84586,-13.23721 19.05259,-21.17455 l -0.089,-0.40161 c -1.30873,-5.41278 -7.54071,-5.45673 -11.95945,-5.25392 z"
     id="path5"
     style="stroke-width:0.999035" />
  <path
     d="m 112.83575,238.76882 -65.568671,0.11888 c -2.258818,0.013 -4.967202,0.3107 -7.148097,-0.25075 -3.220889,-0.8292 -7.75551,-5.14503 -6.526696,-8.88542 l 0.135869,-0.37864 c 1.209831,-3.73639 3.722405,-5.65953 7.41384,-6.47574 l 47.991649,0.06 c 7.866402,0.005 15.936606,-0.35066 23.780036,0.0779 8.03723,0.43857 9.82551,14.68581 -0.0779,15.7338 z"
     id="path6"
     style="stroke-width:0.999035" />
  <path
     d="M 57.497199,293.08936 C 46.542778,293.41305 44.393853,282.53555 52.457067,277.93 c 4.023114,-2.29878 8.816484,-3.79733 13.068378,-5.71848 L 101.62158,256.7045 c 4.67848,-1.92614 9.35597,-4.46469 14.24425,-5.75744 9.06924,-0.49953 13.71475,10.75661 3.85027,15.66586 -4.47867,2.22785 -9.38193,3.8473 -14.02145,5.72848 l -36.572679,15.51601 c -3.866266,1.83723 -7.469785,4.08905 -11.624772,5.23195 z"
     id="path7"
     style="stroke-width:0.999035" />
  <path
     d="m 233.44778,453.50502 c -4.39076,-1.49755 -6.72051,-4.63352 -7.20705,-9.30601 l -3.65046,-31.90618 c -2.78831,-18.75589 -6.18303,-36.49176 -12.64879,-54.37249 l -9.98735,-24.00581 c -6.63959,-14.67283 -18.78386,-36.45879 -7.39786,-51.88589 4.47867,-6.06714 10.37298,-8.79151 17.65794,-9.88845 l 2.89921,-0.10691 c 8.88241,-0.009 17.68792,3.75437 23.89492,10.08527 24.45138,24.9389 19.52214,92.73643 12.86058,127.52283 l -6.50472,30.83821 c -0.95208,6.47375 -1.93713,13.18527 -9.91642,13.02542 z M 212.45106,288.06281 c -17.42717,2.80529 -4.38776,25.14272 -0.33668,34.11106 12.34026,37.67867 16.38296,73.51814 23.47518,111.15242 3.92021,-24.15467 9.62386,-141.03756 -20.00153,-145.04569 z"
     id="path8"
     style="stroke-width:0.999035"
     sodipodi:nodetypes="ccccccccccccccccc" />
</svg>
