<?xml version="1.0" encoding="UTF-8" standalone="no"?>
<!-- Created with Inkscape (http://www.inkscape.org/) -->

<svg
   width="500"
   height="500"
   viewBox="0 0 132.29166 132.29167"
   version="1.1"
   id="svg1"
   xml:space="preserve"
   xmlns="http://www.w3.org/2000/svg"
   xmlns:svg="http://www.w3.org/2000/svg"><defs
     id="defs1" /><g
     id="layer3"
     transform="translate(-284.58332)"><g
       id="g7"
       transform="matrix(0.21234619,0,0,0.21234619,295.00336,9.7990249)"><circle
         style="fill:#fad24d"
         cx="256"
         cy="255.99899"
         r="255.99899"
         id="circle1" /><path
         style="fill:#ffffff"
         d="m 0.229,266.374 c 27.83,-0.463 74.118,-1.072 85.687,-0.225 16.834,1.231 56.093,-1.224 82.9,-1.224 26.807,0 53.507,-8.397 59.116,-2.879 -0.697,1.789 -0.849,3.426 -0.607,4.866 -6.718,-4.495 -32.563,3.369 -58.508,3.369 -26.807,0 -66.066,2.454 -82.9,1.224 -11.531,-0.844 -57.562,-0.243 -85.418,0.223 -0.108,-1.78 -0.197,-3.565 -0.266,-5.354 z m 511.611,-1.775 c -0.06,1.791 -0.128,3.578 -0.225,5.36 -10.486,0.157 -24.721,0.315 -39.275,0.315 -28.676,0 -79.491,-7.682 -128.38,-1.222 -48.89,6.46 -97.443,-13.487 -99.941,0.868 -2.441,14.025 -19.759,9.274 -16.362,-1.731 2.46,6.762 14.369,7.823 16.362,-3.625 2.498,-14.356 51.051,5.591 99.941,-0.868 48.888,-6.46 99.703,1.222 128.38,1.222 14.66,0 28.989,-0.161 39.5,-0.317 z"
         id="path1-7" /><path
         style="fill:#fed298"
         d="m 0.437,270.823 c 26.681,-0.467 76.339,-1.184 88.293,-0.295 16.557,1.231 55.165,-1.224 81.526,-1.224 26.363,0 52.623,-8.397 58.137,-2.879 -4.425,11.557 13.368,16.876 15.824,2.518 2.456,-14.356 50.207,5.591 98.288,-0.868 48.081,-6.459 98.052,1.222 126.254,1.222 16.415,0 32.409,-0.21 42.915,-0.383 -0.483,9.73 -1.526,19.31 -3.065,28.725 -45.524,-3.475 -149.545,-10.837 -172.842,-7.507 -30.039,4.293 -48.427,4.293 -83.981,4.293 -35.555,0 -50.881,0 -91.338,0 -40.457,0 -112.796,-1.235 -127.505,-1.235 H 2.698 C 1.626,285.831 0.867,278.369 0.437,270.823 Z"
         id="path2-5" /><path
         style="fill:#ff5b62"
         d="m 6.585,313.937 c 13.306,0.15 27.401,2.183 37.924,8.43 27.089,16.083 44.022,-15.24 76.186,-5.082 32.166,10.16 89.164,-0.668 103.439,0.013 14.274,0.679 12.536,-5.937 29.463,4.22 16.929,10.16 50.791,-7.62 78.724,-9.311 27.935,-1.691 36.4,25.395 77.03,16.085 29.618,-6.787 65.53,-8.627 94.628,-8.471 1.865,-7.274 3.402,-14.675 4.632,-22.181 -45.519,-3.475 -149.545,-10.837 -172.845,-7.505 -30.036,4.289 -48.425,4.289 -83.978,4.289 -35.553,0 -50.881,0 -91.34,0 -40.455,0 -112.793,-1.231 -127.506,-1.231 H 2.698 c 1.021,7.007 2.31,13.931 3.887,20.744 z"
         id="path3-48" /><path
         style="fill:#ed4c54"
         d="m 503.98,319.819 c -29.097,-0.157 -65.01,1.685 -94.628,8.471 -40.63,9.311 -49.095,-17.775 -77.03,-16.085 -27.933,1.691 -61.795,19.471 -78.724,9.311 -16.929,-10.158 -15.191,-3.539 -29.463,-4.22 -14.274,-0.679 -71.272,10.147 -103.439,-0.013 C 88.532,307.125 71.598,338.448 44.51,322.365 33.991,316.118 19.893,314.086 6.586,313.935 32.842,427.414 134.543,512 256.001,512 375.351,512 475.623,430.326 503.98,319.819 Z"
         id="path4-1" /><path
         style="fill:#ff5b62"
         d="m 216.21,316.305 27.219,-0.789 0.317,58.923 c 0,0 -0.197,24.95 12.031,35.877 12.228,10.928 12.259,30.313 3.003,39.401 -3.288,3.228 -14.486,6.154 -36.248,4.593 -26.956,-5.091 -20.271,-33.94 -15.332,-42.479 13.795,-23.851 9.01,-71.518 9.01,-95.526 z"
         id="path5-2" /><path
         style="fill:#4d4d4d"
         d="m 363.373,61.912 c -0.364,0.275 -133.05,98.091 -125.078,304.881 l 1.725,22.679 c 0,0 -0.121,16.807 7.376,24.168 7.494,7.36 7.786,20.598 1.898,26.476 -3.371,3.369 -7.283,3.277 -10.579,1.661 -4.597,-2.256 6.692,-8.84 -3.94,-8.703 -14.073,0.183 8.475,11.483 -7.752,10.202 -16.519,-3.428 -12.42,-22.862 -9.395,-28.614 8.451,-16.065 5.898,-31.115 5.898,-47.287 -7.102,-94.431 29.345,-226.647 139.846,-305.461 z"
         id="path6" /><g
         id="g10">
	<path
   style="fill:#666666"
   d="m 295.889,270.513 -10.275,-0.472 c 21.329,-84.391 97.097,-109.622 97.313,-109.682 -2.917,5.458 -64.039,19.151 -87.038,110.154 z"
   id="path7" />
	<path
   style="fill:#666666"
   d="m 403.241,273.85 -8.831,-0.726 c 4.044,-47.036 34.724,-67.219 34.81,-67.272 -3.981,5.579 -21.689,18.121 -25.979,67.998 z"
   id="path8" />
	<path
   style="fill:#666666"
   d="m 242.752,140.471 c -0.286,0.163 -101.322,60.367 -96.638,134.533 l -11.787,-0.046 c -2.465,-39.027 29.3,-90.939 108.425,-134.487 z"
   id="path9" />
	<path
   style="fill:#666666"
   d="m 34.059,277.575 -8.43,-0.693 c 2.983,-34.686 27.521,-49.41 27.585,-49.448 -2.937,4.112 -15.994,13.362 -19.158,50.143 z"
   id="path10" />
</g><path
         style="fill:#ff5b62"
         d="m 322.792,452.639 c 5.598,0 10.136,4.537 10.136,10.136 0,5.598 -4.537,10.135 -10.136,10.135 -5.598,0 -10.135,-4.537 -10.135,-10.135 0,-5.599 4.537,-10.136 10.135,-10.136 z M 114.614,373.111 c 7.752,0 14.034,6.284 14.034,14.034 0,7.752 -6.284,14.034 -14.034,14.034 -7.752,0 -14.034,-6.284 -14.034,-14.034 -0.001,-7.753 6.283,-14.034 14.034,-14.034 z m 208.959,10.915 c 10.337,0 18.712,8.379 18.712,18.712 0,10.337 -8.379,18.712 -18.712,18.712 -10.337,0 -18.712,-8.379 -18.712,-18.712 -10e-4,-10.335 8.378,-18.712 18.712,-18.712 z"
         id="path11" /><path
         style="fill:#ed4c54"
         d="m 22.224,300.505 c 8.153,-0.551 31.221,-0.421 45.907,0.877 1.342,0.018 6.141,5.512 -0.293,7.755 -6.431,2.243 -17.35,1.114 -27.485,1.114 -10.135,0 -17.544,0 -19.881,-1.559 -2.339,-1.559 -2.339,-5.263 1.755,-8.187 z m 414.12,10.237 c 3.12,3.702 43.568,1.074 42.397,-0.682 -1.169,-1.755 -0.974,-7.992 -7.018,-10.526 -11.677,0.194 -32.323,-1.758 -35.035,0.582 -2.454,1.592 -2.569,7.474 -0.344,10.627 z M 335.943,299.175 c 5.457,-2.923 18.238,-0.423 39.29,1.526 21.052,1.949 29.939,0.791 31.595,3.521 1.658,2.73 0.706,6.251 -2.748,7.783 -3.453,1.532 -56.984,0.655 -64.953,-4.573 -7.966,-5.228 -3.188,-8.26 -3.188,-8.26 z m -83.73,0.929 c 6.238,0.39 7.626,2.939 20.882,1.184 13.255,-1.755 25.411,-2.828 25.946,2.688 0.824,8.488 -18.809,9.002 -28.676,7.642 -5.653,-0.78 -14.449,0.768 -17.566,-0.793 -3.12,-1.56 -4.484,-5.264 -0.586,-10.721 z m -85.217,2.691 c 16.648,-0.417 33.853,-3.111 43.083,-4.326 9.23,-1.215 2.798,12.486 -0.71,12.709 -3.506,0.223 -39.974,4.921 -41.533,1.411 -1.559,-3.51 -6.297,-8.822 -0.84,-9.796 z m -28.01,-1.9 c 5.848,0 6.238,1.559 4.679,6.238 -1.559,4.679 -1.755,4.484 -17.738,4.874 -15.983,0.388 -35.483,-0.359 -37.037,-3.314 -6.517,-15.304 42.734,-7.797 50.096,-7.797 z"
         id="path12" /><path
         style="fill:#ff5b62"
         d="m 338.036,430.716 c 0.445,0.472 0.421,1.22 -0.051,1.663 -0.472,0.445 -1.22,0.421 -1.663,-0.051 -0.038,-0.04 -12.678,-14.139 -27.424,6.502 -13.339,18.675 -22.064,21.023 -24.604,21.287 -2.657,4.033 -5.88,7.212 -9.511,9.726 14.748,0.252 34.565,14.872 34.631,14.92 0.523,0.383 0.637,1.12 0.253,1.645 -0.383,0.523 -1.12,0.637 -1.645,0.254 -0.075,-0.055 -25.788,-19.013 -38.971,-13.525 l -0.844,0.388 -0.027,0.013 -0.026,0.013 -0.002,0.002 -0.64,0.28 c -10.164,4.363 -22.188,5.254 -33.61,5.649 -28.202,0.972 -14.92,23.316 -18.666,24.908 -0.598,0.254 -1.878,-0.038 -2.132,-0.633 -0.011,-0.027 -3.107,-18.807 5.935,-23.184 -7.52,-4.469 -35.37,-21.619 -33.891,-29.761 0.582,-3.204 -1.702,-6.264 -5.345,-8.953 -2.449,-1.81 -5.494,-3.435 -8.72,-4.827 -17.167,12.515 -38.816,-3.331 -38.878,-3.377 -0.529,-0.379 -0.651,-1.116 -0.271,-1.645 0.379,-0.529 1.116,-0.651 1.645,-0.271 0.057,0.042 19.316,14.135 34.894,4.234 -2.626,-1.008 -5.299,-1.858 -7.81,-2.527 -12.323,-3.288 -18.739,-24.13 -18.756,-24.187 -0.188,-0.62 0.163,-1.276 0.782,-1.464 0.62,-0.188 1.277,0.163 1.464,0.782 0.015,0.055 6.046,19.643 17.11,22.595 3.224,0.86 6.714,2.015 10.058,3.415 l 0.027,0.009 0.053,0.022 0.027,0.011 0.007,0.002 c 3.598,1.515 7.024,3.314 9.77,5.341 4.337,3.204 7.027,7.009 6.255,11.258 -0.558,3.069 4.73,8.147 11.331,13.167 0.046,-0.055 0.102,-0.106 0.161,-0.155 8.235,-6.444 -2.278,-30.513 -2.308,-30.581 -0.254,-0.598 0.024,-1.289 0.622,-1.543 0.598,-0.254 1.289,0.024 1.543,0.622 0.031,0.073 11.033,25.193 1.903,33.09 8.537,6.255 18.452,12.106 20.818,13.481 2.842,-1.16 6.8,-1.984 12.299,-2.174 11.187,-0.386 22.946,-1.253 32.762,-5.463 l 0.642,-0.282 c 0.269,-0.137 0.542,-0.26 0.82,-0.379 8.998,-4.269 16.234,-11.655 19.646,-24.58 7.294,-27.64 -0.291,-42.805 -0.31,-42.847 -0.284,-0.584 -0.042,-1.289 0.542,-1.574 0.584,-0.284 1.289,-0.042 1.574,0.542 0.022,0.046 7.988,15.983 0.47,44.478 -1.036,3.929 -2.41,7.376 -4.063,10.401 3.331,-1.069 10.449,-5.087 21.072,-19.958 16.444,-23.021 31.011,-6.798 31.055,-6.751 v -0.008 z"
         id="path13" /></g></g></svg>
